<svg width="64" height="25" viewBox="0 0 64 25" fill="none" xmlns="http://www.w3.org/2000/svg">
<path d="M6.20467 3.66309C5.35018 3.67448 4.57544 3.68587 3.88046 3.69727C3.19686 3.70866 2.61011 3.72575 2.1202 3.74854C1.55054 3.77132 1.04354 3.79411 0.599205 3.81689C0.576419 3.68018 0.559329 3.54346 0.547935 3.40674C0.513756 3.16748 0.496666 2.87126 0.496666 2.51807C0.496666 2.31299 0.508059 2.06803 0.530846 1.7832C0.565025 1.48698 0.621991 1.15658 0.701744 0.791992H15.9117C15.9231 0.905924 15.9345 1.02555 15.9459 1.15088C15.9573 1.25342 15.9687 1.37305 15.9801 1.50977C15.9915 1.63509 15.9972 1.76042 15.9972 1.88574C15.9972 2.11361 15.9744 2.40983 15.9288 2.77441C15.8946 3.139 15.8263 3.48079 15.7237 3.7998C15.6326 3.78841 15.3933 3.77702 15.0059 3.76562C14.63 3.74284 14.1742 3.72575 13.6388 3.71436C13.1033 3.70296 12.5222 3.69157 11.8956 3.68018C11.269 3.66878 10.6594 3.66309 10.067 3.66309V24H6.20467V3.66309ZM17.8087 15.438C17.8087 13.7974 18.0081 12.3846 18.4068 11.1997C18.8056 10.0148 19.3639 9.04069 20.0816 8.27734C20.7994 7.514 21.6539 6.95573 22.6451 6.60254C23.6477 6.23796 24.7472 6.05566 25.9434 6.05566C27.0486 6.05566 28.0341 6.24365 28.9 6.61963C29.7773 6.98421 30.5178 7.5026 31.1217 8.1748C31.7255 8.84701 32.1869 9.65023 32.5059 10.5845C32.825 11.5187 32.9845 12.5498 32.9845 13.6777C32.9845 14.0651 32.9674 14.424 32.9332 14.7544C32.899 15.0848 32.8591 15.3696 32.8136 15.6089C32.768 15.8937 32.7167 16.1501 32.6598 16.3779L21.4488 16.3267C21.4602 17.3407 21.5684 18.1838 21.7735 18.856C21.9786 19.5168 22.2805 20.0409 22.6793 20.4282C23.0894 20.8156 23.6021 21.089 24.2174 21.2485C24.8326 21.3966 25.5618 21.4707 26.4049 21.4707C27.1226 21.4707 27.7664 21.4251 28.336 21.334C28.9057 21.2428 29.3899 21.1346 29.7887 21.0093C30.2444 20.8726 30.6545 20.7131 31.0191 20.5308C31.19 20.9295 31.321 21.2998 31.4122 21.6416C31.5147 21.9834 31.5888 22.2796 31.6344 22.5303C31.6799 22.8265 31.7141 23.0885 31.7369 23.3164C31.3609 23.5101 30.9052 23.681 30.3697 23.8291C29.914 23.9544 29.3557 24.0684 28.6949 24.1709C28.0341 24.2848 27.2708 24.3418 26.4049 24.3418C25.0377 24.3418 23.8186 24.188 22.7476 23.8804C21.6881 23.5728 20.788 23.0715 20.0474 22.3765C19.3183 21.6701 18.76 20.7529 18.3726 19.625C17.9967 18.4857 17.8087 17.09 17.8087 15.438ZM29.3272 13.8315V13.2505C29.3272 12.5327 29.2361 11.9004 29.0538 11.3535C28.8829 10.7952 28.6436 10.3281 28.336 9.95215C28.0284 9.57617 27.6638 9.29134 27.2423 9.09766C26.8207 8.90397 26.365 8.80713 25.8751 8.80713C25.1573 8.80713 24.525 8.90397 23.9781 9.09766C23.4312 9.27995 22.9698 9.57617 22.5938 9.98633C22.2293 10.3851 21.9558 10.9035 21.7735 11.5415C21.5912 12.1795 21.5001 12.9429 21.5001 13.8315H29.3272ZM40.88 15.0449C40.4128 14.3841 39.9457 13.6948 39.4786 12.9771C39.0115 12.2479 38.5444 11.5187 38.0772 10.7896C37.6101 10.049 37.143 9.31982 36.6759 8.60205C36.2087 7.88428 35.7416 7.19499 35.2745 6.53418H39.1881L42.5719 12.0029L43.0675 13.0625L43.546 12.0029C44.1384 11.1143 44.7081 10.2028 45.255 9.26855C45.8018 8.33431 46.3658 7.42285 46.9469 6.53418H50.8263L44.9986 15.3354L50.7237 24H46.8101L43.2384 18.292L42.7769 17.2837L42.3155 18.292L38.8634 24H35.0182L40.88 15.0449ZM54.5348 9.18311H52.296C52.2846 9.05778 52.2732 8.92106 52.2618 8.77295C52.2504 8.64762 52.239 8.49951 52.2276 8.32861C52.2276 8.15771 52.2276 7.96973 52.2276 7.76465C52.2276 7.55957 52.2333 7.37158 52.2447 7.20068C52.2561 7.01839 52.2732 6.79622 52.296 6.53418H54.5348V3.81689L56.5001 1.59521H58.0211V6.53418H62.8575C62.8803 6.64811 62.8974 6.78483 62.9088 6.94434C62.9316 7.10384 62.943 7.25765 62.943 7.40576C62.943 7.66781 62.9145 7.90706 62.8575 8.12354C62.8119 8.34001 62.7607 8.52799 62.7037 8.6875C62.6353 8.86979 62.5556 9.03499 62.4644 9.18311H58.0211V19.0952C58.0211 19.9269 58.1578 20.5308 58.4312 20.9067C58.7161 21.2827 59.1661 21.4707 59.7813 21.4707C60.0434 21.4707 60.3168 21.4422 60.6016 21.3853C60.8979 21.3169 61.177 21.2371 61.439 21.146C61.7353 21.0435 62.0372 20.9295 62.3448 20.8042C62.5727 21.1004 62.7493 21.391 62.8746 21.6758C63.0113 21.9606 63.1082 22.217 63.1651 22.4448C63.2335 22.7069 63.2734 22.9518 63.2848 23.1797C62.9657 23.3962 62.6069 23.5898 62.2081 23.7607C61.8549 23.9089 61.4334 24.0399 60.9434 24.1538C60.4535 24.2791 59.8896 24.3418 59.2515 24.3418C58.3629 24.3418 57.6166 24.2279 57.0128 24C56.4203 23.7835 55.9361 23.4588 55.5601 23.0259C55.1956 22.5815 54.9335 22.0347 54.774 21.3853C54.6145 20.7244 54.5348 19.9668 54.5348 19.1123V9.18311Z" fill="black"/>
</svg>
