<svg width="60" height="28" viewBox="0 0 60 28" fill="none" xmlns="http://www.w3.org/2000/svg">
<path d="M4.88093 4H0.280926V-1.90735e-06H13.8809V4H9.28093V28H4.88093V4ZM16.0112 -1.90735e-06H28.0112V4H20.4112V11.4H26.4512V15.4H20.4112V24H28.0112V28H16.0112V-1.90735e-06ZM34.5006 13.68L29.6606 -1.90735e-06H34.3006L37.2606 9.04H37.3406L40.3806 -1.90735e-06H44.5406L39.7006 13.68L44.7806 28H40.1406L36.9406 18.24H36.8606L33.5806 28H29.4206L34.5006 13.68ZM50.3106 4H45.7106V-1.90735e-06H59.3106V4H54.7106V28H50.3106V4Z" fill="black"/>
</svg>
