<svg width="54" height="26" viewBox="0 0 54 26" fill="none" xmlns="http://www.w3.org/2000/svg">
<path d="M0.735516 2.47059V1.29412V0.117646H1.91199H3.08846H4.26493H5.4414H6.61787H7.79434H8.97081H10.1473H11.3238H12.5002V1.29412V2.47059H11.3238H10.1473H8.97081H7.79434V3.64706V4.82353V6V7.17647V8.35294V9.52941V10.7059V11.8824V13.0588V14.2353V15.4118V16.5882V17.7647V18.9412V20.1176V21.2941V22.4706V23.6471V24.8235V26H6.61787H5.4414V24.8235V23.6471V22.4706V21.2941V20.1176V18.9412V17.7647V16.5882V15.4118V14.2353V13.0588V11.8824V10.7059V9.52941V8.35294V7.17647V6V4.82353V3.64706V2.47059H4.26493H3.08846H1.91199H0.735516ZM17.1992 26V24.8235V23.6471H18.3757H19.5522H20.7286H21.9051H23.0816H24.258V24.8235V26H23.0816H21.9051H20.7286H19.5522H18.3757H17.1992ZM14.8463 23.6471V22.4706V21.2941V20.1176V18.9412V17.7647V16.5882V15.4118V14.2353V13.0588V11.8824V10.7059V9.52941H16.0227H17.1992V10.7059V11.8824V13.0588V14.2353H18.3757H19.5522H20.7286H21.9051H23.0816H24.258V13.0588V11.8824V10.7059V9.52941H25.4345H26.611V10.7059V11.8824V13.0588V14.2353V15.4118V16.5882H25.4345H24.258H23.0816H21.9051H20.7286H19.5522H18.3757H17.1992V17.7647V18.9412V20.1176V21.2941V22.4706V23.6471H16.0227H14.8463ZM24.258 23.6471V22.4706V21.2941H25.4345H26.611V22.4706V23.6471H25.4345H24.258ZM17.1992 9.52941V8.35294V7.17647H18.3757H19.5522H20.7286H21.9051H23.0816H24.258V8.35294V9.52941H23.0816H21.9051H20.7286H19.5522H18.3757H17.1992ZM28.9823 26V24.8235V23.6471H30.1588V22.4706V21.2941H31.3352V20.1176V18.9412H32.5117V17.7647V16.5882V15.4118V14.2353H31.3352V13.0588V11.8824H30.1588V10.7059V9.52941H28.9823V8.35294V7.17647H30.1588H31.3352V8.35294V9.52941H32.5117V10.7059V11.8824H33.6882V13.0588V14.2353H34.8647V15.4118V16.5882V17.7647V18.9412H33.6882V20.1176V21.2941H32.5117V22.4706V23.6471H31.3352V24.8235V26H30.1588H28.9823ZM39.5705 26V24.8235V23.6471H38.3941V22.4706V21.2941H37.2176V20.1176V18.9412H36.0411V17.7647V16.5882V15.4118V14.2353H37.2176V13.0588V11.8824H38.3941V10.7059V9.52941H39.5705V8.35294V7.17647H40.747H41.9235V8.35294V9.52941H40.747V10.7059V11.8824H39.5705V13.0588V14.2353H38.3941V15.4118V16.5882V17.7647V18.9412H39.5705V20.1176V21.2941H40.747V22.4706V23.6471H41.9235V24.8235V26H40.747H39.5705ZM49.0007 26V24.8235V23.6471H50.1772H51.3536H52.5301H53.7066V24.8235V26H52.5301H51.3536H50.1772H49.0007ZM44.2948 9.52941V8.35294V7.17647H45.4713H46.6477V6V4.82353V3.64706V2.47059H47.8242H49.0007V3.64706V4.82353V6V7.17647H50.1772H51.3536H52.5301H53.7066V8.35294V9.52941H52.5301H51.3536H50.1772H49.0007V10.7059V11.8824V13.0588V14.2353V15.4118V16.5882V17.7647V18.9412V20.1176V21.2941V22.4706V23.6471H47.8242H46.6477V22.4706V21.2941V20.1176V18.9412V17.7647V16.5882V15.4118V14.2353V13.0588V11.8824V10.7059V9.52941H45.4713H44.2948Z" fill="black"/>
</svg>
