<svg width="55" height="30" viewBox="0 0 55 30" fill="none" xmlns="http://www.w3.org/2000/svg">
<path d="M9.52932 0.759998L21.5293 -1.43051e-06C21.876 -1.43051e-06 22.2093 0.333332 22.5293 1C22.5293 2.01333 21.356 2.52 19.0093 2.52L12.0093 2.92L11.8493 3C12.516 7.34667 12.8493 15.6 12.8493 27.76C12.716 28.9333 12.2893 29.52 11.5693 29.52C10.876 29.52 10.476 28.9867 10.3693 27.92V18.64C10.3693 12.4533 10.0893 7.29333 9.52932 3.16C4.75599 3.61333 2.36932 4.14667 2.36932 4.76L2.00932 4.92C1.18266 4.68 0.769322 4.25333 0.769322 3.64C0.769322 2.17333 3.68932 1.21333 9.52932 0.759998ZM22.3215 11.64C23.3882 11.6667 25.1882 13.5333 27.7215 17.24L27.8015 17.92C27.8015 18.6667 25.9748 19.24 22.3215 19.64L22.2015 19.76V19.92C22.7615 22.32 23.3482 23.52 23.9615 23.52H24.4415C25.2948 23.52 26.5882 22.6 28.3215 20.76H28.5615C29.0948 20.76 29.5082 21.1467 29.8015 21.92C29.8015 22.56 28.6815 23.6667 26.4415 25.24C25.8548 25.5867 25.1482 25.84 24.3215 26C22.1615 26 20.6548 23.9733 19.8015 19.92C18.5748 19.7333 17.9615 19.2267 17.9615 18.4C17.9615 17.8133 18.4148 17.4267 19.3215 17.24V17.4L19.7215 17.24V16.24C19.7215 13.1733 20.5882 11.64 22.3215 11.64ZM22.5615 14.52H22.2015L22.0415 16V17.24H22.2015C23.6948 17.1867 24.4415 17.0267 24.4415 16.76C23.7482 15.72 23.1215 14.9733 22.5615 14.52ZM36.7387 14.44H36.8187C37.352 14.44 37.6854 14.8667 37.8187 15.72C37.152 18.4133 36.8187 20.4933 36.8187 21.96C37.512 23.1333 38.512 23.72 39.8187 23.72C40.1654 24.04 40.3387 24.3733 40.3387 24.72V25.2C40.0987 25.7067 39.5654 25.96 38.7387 25.96C37.992 25.9067 37.272 25.6 36.5787 25.04H36.2187C35.9254 27.8933 35.5387 29.32 35.0587 29.32H34.3387C33.752 29 33.4587 28.6267 33.4587 28.2L34.2187 22.2V22.04C32.3787 18.6533 31.4587 16.5467 31.4587 15.72C31.4587 15.08 31.912 14.7467 32.8187 14.72C33.4587 14.72 34.0454 15.7467 34.5787 17.8L34.7387 17.96H34.9787C35.2454 15.6133 35.832 14.44 36.7387 14.44ZM46.4493 1.72C47.196 1.88 47.5693 2.25333 47.5693 2.84L47.3293 4.6V5.12C47.3293 6.29333 47.4627 7.53333 47.7293 8.84H47.8093C50.9027 7.90667 52.8227 7.44 53.5693 7.44C54.3427 7.65333 54.7293 8.04 54.7293 8.6C54.7293 9.50667 53.8093 9.96 51.9693 9.96L47.8093 11.44C47.8093 15.04 48.196 19.9333 48.9693 26.12C48.8093 26.84 48.4227 27.2 47.8093 27.2H47.7293C46.796 27.2 46.3293 26 46.3293 23.6C45.9827 21.8133 45.6893 17.9333 45.4493 11.96H44.7293C42.2227 11.8 40.9693 11.2133 40.9693 10.2C40.9693 9.90667 41.2493 9.54667 41.8093 9.12H42.2093L44.0493 9.6H45.3293L44.9693 4.6C44.9693 2.68 45.4627 1.72 46.4493 1.72Z" fill="black"/>
</svg>
