<svg width="185" height="39" viewBox="0 0 185 39" fill="none" xmlns="http://www.w3.org/2000/svg">
<path d="M64.416 23.632C64.3413 24.4347 64.192 25.256 63.968 26.096C63.7627 26.936 63.4547 27.7573 63.044 28.56C62.652 29.3627 62.176 30.1373 61.616 30.884C61.0747 31.6307 60.468 32.3213 59.796 32.956C59.124 33.5907 58.4053 34.1227 57.64 34.552C55.9973 35.5227 54.4107 35.868 52.88 35.588C52.544 36.316 52.04 36.7733 51.368 36.96C50.7147 37.1653 50.0613 37.1653 49.408 36.96C48.7733 36.7733 48.2133 36.4093 47.728 35.868C47.2427 35.3267 47 34.5893 47 33.656C47 32.704 47.0653 31.7333 47.196 30.744C47.3267 29.7547 47.504 28.8027 47.728 27.888C48.0827 26.376 48.5213 24.9573 49.044 23.632C50.276 20.6267 50.976 18.5173 51.144 17.304C51.3867 15.68 51.8347 14.672 52.488 14.28C53.5707 13.6453 54.5973 13.3747 55.568 13.468C56.5387 13.5613 57.416 13.7947 58.2 14.168C59.488 14.784 60.8787 15.82 62.372 17.276C64.0147 18.8627 64.696 20.9813 64.416 23.632ZM53.412 32.032C54.364 31.5467 55.1293 31.052 55.708 30.548C56.3053 30.0253 56.8653 29.5493 57.388 29.12C58.1907 28.3173 58.7787 27.3653 59.152 26.264C59.9733 23.8373 59.4507 21.9987 57.584 20.748C57.304 20.5427 56.884 20.2627 56.324 19.908C56.0627 20.5053 55.8667 21.1307 55.736 21.784C55.624 22.4373 55.4653 23.072 55.26 23.688L54.504 26.152L53.888 28.812C53.8507 29.1853 53.7947 29.5493 53.72 29.904C53.6453 30.24 53.58 30.5947 53.524 30.968L53.412 32.032ZM75.469 16.072C74.8157 18.1067 74.209 19.9453 73.649 21.588C73.1077 23.2307 72.6037 24.7427 72.137 26.124C71.689 27.5053 71.269 28.784 70.877 29.96C70.485 31.1173 70.121 32.228 69.785 33.292C69.5983 34.524 68.9917 35.392 67.965 35.896C67.3677 36.176 66.6583 36.316 65.837 36.316C65.0157 36.316 64.3997 36.2227 63.989 36.036C63.5783 35.868 63.317 35.616 63.205 35.28C63.0743 34.944 63.0743 34.5427 63.205 34.076C63.317 33.5907 63.5223 32.9373 63.821 32.116C64.1197 31.276 64.493 30.1467 64.941 28.728C65.4077 27.3093 65.893 25.872 66.397 24.416C67.6477 20.776 68.637 18.256 69.365 16.856C69.645 16.3333 69.925 15.988 70.205 15.82C70.485 15.6333 70.7557 15.5027 71.017 15.428C71.2783 15.3347 71.521 15.232 71.745 15.12C71.969 15.008 72.165 14.728 72.333 14.28C72.5197 13.832 72.8463 13.524 73.313 13.356C73.7983 13.188 74.2463 13.1787 74.657 13.328C75.0863 13.4587 75.4037 13.7573 75.609 14.224C75.833 14.672 75.7863 15.288 75.469 16.072ZM78.8063 35.084C78.6383 35.8307 78.0596 36.288 77.0703 36.456C76.1556 36.624 75.2876 36.5213 74.4663 36.148C73.5516 35.756 73.1502 35.2053 73.2622 34.496C73.1502 33.4133 73.7196 31.0613 74.9703 27.44C76.8369 22.008 78.7036 18.1253 80.5703 15.792C81.0556 15.1947 81.4663 14.812 81.8023 14.644C82.1569 14.4573 82.5583 14.2893 83.0063 14.14C83.4543 13.9907 83.9209 13.8507 84.4063 13.72C85.3769 13.4587 86.2916 13.2813 87.1503 13.188C88.0276 13.076 88.8116 13.1787 89.5023 13.496C90.1929 13.7947 90.7249 14.2427 91.0983 14.84C91.4903 15.4373 91.7329 16.1467 91.8263 16.968C91.9196 17.7707 91.8916 18.62 91.7423 19.516C91.5929 20.3933 91.3223 21.2893 90.9303 22.204C90.5383 23.1 90.0436 23.94 89.4463 24.724C88.1396 26.4413 86.6089 27.552 84.8543 28.056L85.1343 28.532C85.3769 28.9053 85.6663 29.316 86.0023 29.764C86.3569 30.212 86.7023 30.6693 87.0383 31.136C87.3929 31.6027 87.7103 32.0693 87.9903 32.536C88.2703 33.0027 88.4756 33.4413 88.6063 33.852C88.9049 34.7667 88.6716 35.4293 87.9062 35.84C87.2903 36.2133 86.8049 36.3067 86.4503 36.12C86.3009 36.0267 86.1516 35.9053 86.0023 35.756C85.8529 35.6253 85.6476 35.5133 85.3863 35.42C84.2849 35.7373 83.4449 35.4573 82.8663 34.58C82.5116 34.02 82.2409 33.5067 82.0543 33.04C81.8676 32.5733 81.7089 32.1813 81.5783 31.864C81.2423 31.1733 80.8596 30.576 80.4303 30.072C80.2249 30.576 79.9916 31.22 79.7303 32.004C79.4129 32.9933 79.0583 34.02 78.6663 35.084H78.8063ZM84.4623 18.788C84.1076 19.5907 83.8649 20.1507 83.7343 20.468C83.4729 21.1027 83.1836 21.8027 82.8663 22.568C82.8103 22.9787 82.7636 23.268 82.7263 23.436L83.1183 23.044L83.5943 22.82C83.9303 22.6333 84.2383 22.4653 84.5183 22.316C84.7983 22.1667 85.0503 21.98 85.2743 21.756C85.7036 21.3267 86.0769 20.6267 86.3943 19.656C86.3943 19.4693 86.4223 19.2827 86.4783 19.096C86.5529 18.9093 86.5996 18.7227 86.6183 18.536C86.6929 18.1253 86.5249 17.836 86.1143 17.668C85.7409 17.6307 85.2743 17.9387 84.7143 18.592C84.6023 18.7227 84.5183 18.788 84.4623 18.788ZM96.5311 31.472C97.6138 31.584 98.4165 31.64 98.9391 31.64C99.4805 31.64 100.292 31.5653 101.375 31.416C101.711 31.528 101.907 31.668 101.963 31.836C102.019 32.004 102.038 32.1813 102.019 32.368C102 32.536 102.01 32.704 102.047 32.872C102.084 33.04 102.262 33.18 102.579 33.292C102.747 33.348 102.794 33.516 102.719 33.796C102.663 34.0573 102.514 34.3467 102.271 34.664C101.655 35.4667 100.927 36.0267 100.087 36.344C98.7431 36.68 97.6885 36.876 96.9231 36.932C95.6538 37.0253 94.2725 36.9787 92.7791 36.792C91.1365 36.4933 90.3431 35.812 90.3991 34.748C90.3991 30.828 91.2578 26.8893 92.9751 22.932C93.5351 21.644 94.1698 20.2907 94.8791 18.872C95.0285 18.5733 95.1125 18.2373 95.1311 17.864C95.1685 17.4907 95.1965 17.1267 95.2151 16.772C95.2338 16.4173 95.2898 16.1 95.3831 15.82C95.4765 15.54 95.6725 15.344 95.9711 15.232C99.8538 13.6827 102.924 13.0853 105.183 13.44C105.967 13.4587 106.48 13.7293 106.723 14.252C106.984 14.756 107.012 15.3253 106.807 15.96C106.62 16.5947 106.238 17.192 105.659 17.752C105.099 18.312 104.39 18.6573 103.531 18.788C102.43 19.1053 101.758 19.32 101.515 19.432C101.048 19.656 100.712 19.9547 100.507 20.328C100.246 20.7387 100.003 21.1307 99.7791 21.504C99.5551 21.8773 99.3965 22.2787 99.3031 22.708L99.1911 23.324C99.5458 23.492 99.9751 23.548 100.479 23.492C101.002 23.4173 101.478 23.352 101.907 23.296C102.355 23.2213 102.71 23.212 102.971 23.268C103.251 23.324 103.307 23.604 103.139 24.108C102.99 24.5933 102.7 25.144 102.271 25.76C101.86 26.376 101.272 26.824 100.507 27.104C100.022 27.1973 99.6858 27.272 99.4991 27.328C99.3311 27.3653 99.2005 27.3933 99.1071 27.412C98.9765 27.4307 98.6031 27.4587 97.9871 27.496C97.1098 28.9893 96.5778 30.1467 96.3911 30.968C96.3165 31.304 96.3631 31.472 96.5311 31.472ZM117.459 21.056C117.459 20.496 117.263 20.216 116.871 20.216C116.721 20.216 116.544 20.2533 116.339 20.328C116.133 20.4027 115.937 20.468 115.751 20.524C115.06 20.8973 114.519 21.308 114.127 21.756C113.753 22.1853 113.371 22.6707 112.979 23.212C112.587 23.7533 112.251 24.332 111.971 24.948C111.691 25.564 111.476 26.1427 111.327 26.684C110.785 28.6813 110.991 30.0253 111.943 30.716C112.335 30.996 112.745 31.136 113.175 31.136C113.623 31.1173 113.977 31.024 114.239 30.856C114.519 30.688 114.789 30.5293 115.051 30.38C115.312 30.2307 115.611 30.128 115.947 30.072C116.301 29.9973 116.731 30.044 117.235 30.212C117.757 30.3613 118.037 30.5667 118.075 30.828C118.112 31.0893 118.112 31.36 118.075 31.64C118.037 31.92 118.028 32.172 118.047 32.396C118.084 32.62 118.289 32.76 118.663 32.816C119.017 33.264 118.793 33.8053 117.991 34.44C117.785 34.608 117.589 34.7667 117.403 34.916C115.797 35.9427 114.089 36.512 112.279 36.624C111.14 36.6987 109.927 36.4933 108.639 36.008C106.716 35.28 105.633 33.6467 105.391 31.108C105.073 28.756 105.372 26.32 106.287 23.8C107.052 21.672 108.209 19.7027 109.759 17.892C111.159 16.2307 112.54 15.148 113.903 14.644C115.527 13.804 117.281 13.4773 119.167 13.664C121.164 13.9253 122.471 14.7747 123.087 16.212C123.703 17.6493 123.6 19.376 122.779 21.392C122.499 22.1013 121.967 22.6613 121.183 23.072C120.511 23.4453 119.783 23.632 118.999 23.632C118.215 23.632 117.711 23.3893 117.487 22.904C117.263 22.4 117.253 21.784 117.459 21.056ZM130.682 27.832C130.178 29.288 129.664 30.688 129.142 32.032C128.619 33.376 128.18 34.3933 127.826 35.084C127.49 35.7933 127.191 36.2787 126.93 36.54C126.668 36.8013 126.398 36.9787 126.118 37.072C125.856 37.1653 125.586 37.2027 125.306 37.184C125.044 37.1653 124.774 37.1467 124.494 37.128C122.926 36.8853 122.44 35.756 123.038 33.74C123.43 32.1347 123.747 30.828 123.99 29.82C124.232 28.7933 124.428 27.9533 124.578 27.3C124.746 26.628 124.886 26.0773 124.998 25.648C125.11 25.2 125.231 24.7613 125.362 24.332C125.492 23.9027 125.651 23.4173 125.838 22.876C126.043 22.3347 126.304 21.616 126.622 20.72C125.912 20.8133 125.278 20.7387 124.718 20.496C123.896 20.1413 123.56 19.376 123.71 18.2C123.784 17.6587 124.074 17.1547 124.578 16.688C124.839 16.4453 125.147 16.184 125.502 15.904C126.23 15.3253 127.676 14.7093 129.842 14.056C132.082 13.384 134.004 13.0667 135.61 13.104C136.039 13.0293 136.478 13.0853 136.926 13.272C137.392 13.44 137.766 13.6733 138.046 13.972C138.326 14.2707 138.466 14.5973 138.466 14.952C138.484 15.3067 138.26 15.624 137.794 15.904C137.57 16.0533 137.411 16.3053 137.318 16.66C137.224 16.996 137.122 17.36 137.01 17.752C136.898 18.1253 136.73 18.4707 136.506 18.788C136.3 19.1053 135.964 19.292 135.498 19.348C135.255 19.4787 134.91 19.572 134.462 19.628C134.032 19.684 133.743 19.7307 133.594 19.768C133.463 19.7867 133.388 19.8333 133.37 19.908C133.034 20.8973 132.632 22.1013 132.166 23.52C131.699 24.92 131.204 26.3573 130.682 27.832ZM126.902 20.412C126.864 20.412 126.846 20.4213 126.846 20.44C126.846 20.44 126.864 20.44 126.902 20.44V20.412ZM146.836 16.072C146.183 18.1067 145.576 19.9453 145.016 21.588C144.475 23.2307 143.971 24.7427 143.504 26.124C143.056 27.5053 142.636 28.784 142.244 29.96C141.852 31.1173 141.488 32.228 141.152 33.292C140.966 34.524 140.359 35.392 139.332 35.896C138.735 36.176 138.026 36.316 137.204 36.316C136.383 36.316 135.767 36.2227 135.356 36.036C134.946 35.868 134.684 35.616 134.572 35.28C134.442 34.944 134.442 34.5427 134.572 34.076C134.684 33.5907 134.89 32.9373 135.188 32.116C135.487 31.276 135.86 30.1467 136.308 28.728C136.775 27.3093 137.26 25.872 137.764 24.416C139.015 20.776 140.004 18.256 140.732 16.856C141.012 16.3333 141.292 15.988 141.572 15.82C141.852 15.6333 142.123 15.5027 142.384 15.428C142.646 15.3347 142.888 15.232 143.112 15.12C143.336 15.008 143.532 14.728 143.7 14.28C143.887 13.832 144.214 13.524 144.68 13.356C145.166 13.188 145.614 13.1787 146.024 13.328C146.454 13.4587 146.771 13.7573 146.976 14.224C147.2 14.672 147.154 15.288 146.836 16.072ZM150.957 16.464C152.133 15.12 153.44 14.28 154.877 13.944C155.867 13.7013 156.8 13.7387 157.677 14.056C158.368 13.328 159.264 13.0667 160.365 13.272C161.373 13.4587 162.232 14.028 162.941 14.98C162.979 15.1107 163.053 15.3067 163.165 15.568C163.296 15.8293 163.417 16.1187 163.529 16.436C164.351 18.34 164.416 20.8413 163.725 23.94C162.867 27.7853 161.345 31.0427 159.161 33.712C158.489 34.5333 157.733 35.2147 156.893 35.756C155.549 36.7827 153.944 37.24 152.077 37.128C150.92 37.072 149.949 36.7827 149.165 36.26C146.048 34.7107 145.031 31.4813 146.113 26.572C147.009 22.54 148.624 19.1707 150.957 16.464ZM151.293 31.332L151.265 31.5L151.321 31.808C151.433 32.3867 151.62 32.8347 151.881 33.152C152.143 33.4507 152.357 33.6373 152.525 33.712C152.712 33.5627 152.899 33.4227 153.085 33.292C153.272 33.1613 153.44 33.0027 153.589 32.816C154.859 31.248 155.848 29.1947 156.557 26.656C157.267 24.1173 157.528 21.7653 157.341 19.6C156.613 20.5333 155.848 21.6067 155.045 22.82C154.243 24.0333 153.608 25.0693 153.141 25.928C152.077 27.9253 151.461 29.7267 151.293 31.332ZM165.06 24.136C165.434 22.8853 165.732 21.924 165.956 21.252C166.199 20.5613 166.432 19.9453 166.656 19.404C166.88 18.8627 167.132 18.34 167.412 17.836C167.711 17.332 168.028 16.8747 168.364 16.464C168.719 16.0347 169.092 15.6987 169.484 15.456C169.876 15.2133 170.287 15.092 170.716 15.092C171.146 15.092 171.594 15.26 172.06 15.596C172.807 17.4627 173.264 18.7133 173.432 19.348C173.656 20.2813 173.862 21.5973 174.048 23.296C174.216 22.8667 174.403 22.4187 174.608 21.952C174.832 21.4667 175.047 20.9813 175.252 20.496C175.831 19.264 176.195 18.3307 176.344 17.696C176.755 16.3893 177.604 15.4093 178.892 14.756C180.012 14.196 181.058 14.0187 182.028 14.224C182.42 14.2987 182.691 14.4573 182.84 14.7C183.008 14.9427 183.008 15.1947 182.84 15.456C182.691 15.7173 182.635 15.9693 182.672 16.212C182.728 16.436 182.775 16.7067 182.812 17.024C182.868 17.8827 182.719 18.648 182.364 19.32C182.01 19.9733 181.646 20.7947 181.272 21.784C180.899 22.7547 180.516 23.7907 180.124 24.892C179.751 25.9933 179.368 27.1133 178.976 28.252C178.584 29.3907 178.202 30.4267 177.828 31.36C177.007 33.5067 176.335 34.692 175.812 34.916C175.103 35.3453 174.58 35.5973 174.244 35.672C173.815 35.7467 173.208 35.7467 172.424 35.672C171.939 35.6347 171.519 35.0093 171.164 33.796C170.959 33.1427 170.772 32.2373 170.604 31.08C170.306 29.064 170.1 27.9533 169.988 27.748C169.242 30.1747 168.71 31.7053 168.392 32.34C168.094 32.9747 167.86 33.3947 167.692 33.6C167.543 33.8053 167.356 34.076 167.132 34.412C166.89 35.084 166.311 35.5787 165.396 35.896C164.612 36.1947 163.903 36.2413 163.268 36.036C162.578 35.812 162.372 35.3827 162.652 34.748C162.858 32.508 163.66 28.9707 165.06 24.136Z" fill="black"/>
<path d="M35.09 32.75C35.89 32.93 36.38 33.55 36.56 34.61C36.74 35.59 36.63 36.52 36.23 37.4C35.81 38.38 35.22 38.81 34.46 38.69C33.3 38.81 30.78 38.2 26.9 36.86C21.08 34.86 16.92 32.86 14.42 30.86C13.78 30.34 13.37 29.9 13.19 29.54C12.99 29.16 12.81 28.73 12.65 28.25C12.49 27.77 12.34 27.27 12.2 26.75C11.92 25.71 11.73 24.73 11.63 23.81C11.51 22.87 11.62 22.03 11.96 21.29C12.28 20.55 12.76 19.98 13.4 19.58C14.04 19.16 14.8 18.9 15.68 18.8C16.54 18.7 17.45 18.73 18.41 18.89C19.35 19.05 20.31 19.34 21.29 19.76C22.25 20.18 23.15 20.71 23.99 21.35C25.83 22.75 27.02 24.39 27.56 26.27L28.07 25.97C28.47 25.71 28.91 25.4 29.39 25.04C29.87 24.66 30.36 24.29 30.86 23.93C31.36 23.55 31.86 23.21 32.36 22.91C32.86 22.61 33.33 22.39 33.77 22.25C34.75 21.93 35.46 22.18 35.9 23C36.3 23.66 36.4 24.18 36.2 24.56C36.1 24.72 35.97 24.88 35.81 25.04C35.67 25.2 35.55 25.42 35.45 25.7C35.79 26.88 35.49 27.78 34.55 28.4C33.95 28.78 33.4 29.07 32.9 29.27C32.4 29.47 31.98 29.64 31.64 29.78C30.9 30.14 30.26 30.55 29.72 31.01C30.26 31.23 30.95 31.48 31.79 31.76C32.85 32.1 33.95 32.48 35.09 32.9L35.09 32.75ZM17.63 26.69C18.49 27.07 19.09 27.33 19.43 27.47C20.11 27.75 20.86 28.06 21.68 28.4C22.12 28.46 22.43 28.51 22.61 28.55L22.19 28.13L21.95 27.62C21.75 27.26 21.57 26.93 21.41 26.63C21.25 26.33 21.05 26.06 20.81 25.82C20.35 25.36 19.6 24.96 18.56 24.62C18.36 24.62 18.16 24.59 17.96 24.53C17.76 24.45 17.56 24.4 17.36 24.38C16.92 24.3 16.61 24.48 16.43 24.92C16.39 25.32 16.72 25.82 17.42 26.42C17.56 26.54 17.63 26.63 17.63 26.69ZM31.22 13.7591C31.34 12.5991 31.4 11.7391 31.4 11.1791C31.4 10.5991 31.32 9.72906 31.16 8.56906C31.28 8.20906 31.43 7.99906 31.61 7.93906C31.79 7.87906 31.98 7.85906 32.18 7.87906C32.36 7.89906 32.54 7.88906 32.72 7.84906C32.9 7.80906 33.05 7.61906 33.17 7.27906C33.23 7.09906 33.41 7.04906 33.71 7.12906C33.99 7.18906 34.3 7.34906 34.64 7.60906C35.5 8.26906 36.1 9.04906 36.44 9.94906C36.8 11.3891 37.01 12.5191 37.07 13.3391C37.17 14.6991 37.12 16.1791 36.92 17.7791C36.6 19.5391 35.87 20.3891 34.73 20.3291C30.53 20.3291 26.31 19.4091 22.07 17.5691C20.69 16.9691 19.24 16.2891 17.72 15.5291C17.4 15.3691 17.04 15.2791 16.64 15.2591C16.24 15.2191 15.85 15.1891 15.47 15.1691C15.09 15.1491 14.75 15.0891 14.45 14.9891C14.15 14.8891 13.94 14.6791 13.82 14.3591C12.16 10.1991 11.52 6.90906 11.9 4.48906C11.92 3.64906 12.21 3.09906 12.77 2.83906C13.31 2.55906 13.92 2.52906 14.6 2.74906C15.28 2.94906 15.92 3.35906 16.52 3.97906C17.12 4.57906 17.49 5.33906 17.63 6.25906C17.97 7.43906 18.2 8.15906 18.32 8.41906C18.56 8.91906 18.88 9.27906 19.28 9.49906C19.72 9.77906 20.14 10.0391 20.54 10.2791C20.94 10.5191 21.37 10.6891 21.83 10.7891L22.49 10.9091C22.67 10.5291 22.73 10.0691 22.67 9.52906C22.59 8.96906 22.52 8.45906 22.46 7.99906C22.38 7.51906 22.37 7.13906 22.43 6.85906C22.49 6.55906 22.79 6.49906 23.33 6.67906C23.85 6.83906 24.44 7.14906 25.1 7.60906C25.76 8.04906 26.24 8.67906 26.54 9.49906C26.64 10.0191 26.72 10.3791 26.78 10.5791C26.82 10.7591 26.85 10.8991 26.87 10.9991C26.89 11.1391 26.92 11.5391 26.96 12.1991C28.56 13.1391 29.8 13.7091 30.68 13.9091C31.04 13.9891 31.22 13.9391 31.22 13.7591Z" fill="white"/>
</svg>
