<svg width="99" height="35" viewBox="0 0 99 35" fill="none" xmlns="http://www.w3.org/2000/svg">
<path d="M15.7494 17.47L15.9244 18.065C15.9594 18.135 15.8544 18.275 15.7494 18.345C12.9844 19.395 8.57443 20.235 5.98443 20.445C5.63443 20.48 5.10943 20.48 4.79443 20.48C3.53443 20.48 2.97443 20.095 2.55443 19.08C2.44943 18.87 2.37943 18.24 2.37943 17.47V12.885H4.89943V17.925C4.89943 18.31 5.07443 18.485 5.52943 18.485C8.36443 18.485 12.9494 17.96 15.4344 17.33C15.6094 17.26 15.7144 17.33 15.7494 17.47ZM4.89943 13.305H2.37943V7.46C1.88943 7.04 1.15443 6.69 0.384434 6.48L0.559434 5.71C0.594434 5.605 0.699434 5.5 0.909434 5.5C1.85443 5.5 4.05943 5.64 4.96943 5.745L4.89943 7.285V13.305ZM13.5094 6.9L4.75943 7.285V5.745C5.87943 5.71 9.62443 5.535 10.5344 5.395L11.3394 4.87C12.0394 4.87 13.2994 4.94 13.8944 5.08C14.1744 5.115 14.2794 5.29 14.2794 5.535C14.2794 6.095 14.1044 6.55 13.9644 6.725C13.8594 6.865 13.6844 6.9 13.5094 6.9ZM15.9594 11.03L17.5344 12.395C16.9744 12.465 16.1344 12.64 15.5744 12.85C14.8044 12.535 14.1044 12.08 13.5794 11.625C13.4394 11.485 13.4394 11.415 13.4744 11.31L13.6844 10.96C14.3844 11.03 15.2244 11.03 15.9594 11.03ZM19.7044 10.855V12.36C19.0744 12.36 17.9894 12.36 17.5344 12.395L15.9594 11.03C16.9394 11.03 18.6544 10.995 19.7044 10.855ZM12.2494 13.025L4.61943 13.375V11.905C5.77443 11.905 8.57443 11.8 9.58943 11.695L10.4294 11.24C11.0944 11.24 12.1094 11.31 12.6694 11.415C12.9144 11.45 13.0894 11.625 13.0894 11.87C13.0894 12.325 12.9144 12.745 12.7744 12.885C12.6694 12.99 12.4594 13.025 12.2494 13.025ZM24.9544 23.07V24.75C22.2594 24.715 14.1394 24.82 12.5294 24.925C11.7244 24.96 10.2194 25.205 9.44943 25.485C8.32943 25.135 7.20943 24.505 6.40443 23.875C6.26443 23.805 6.22943 23.665 6.29943 23.525L6.54443 23.07C7.55943 23.28 8.99443 23.385 9.93943 23.385C11.7244 23.385 22.8194 23.21 24.9544 23.07ZM27.2994 24.925L24.7444 24.75L24.8144 23.07L25.7944 22.615C25.9344 22.545 26.1444 22.545 26.3194 22.615C26.7044 22.79 27.4044 23.21 27.6494 23.42C27.7894 23.525 27.7894 23.7 27.7194 23.84L27.2994 24.925ZM26.5294 34.2H24.9894C24.8494 33.045 24.7444 30.945 24.7444 29.685V24.75H27.2994L27.2294 29.09C27.2294 30.56 26.9494 32.87 26.5294 34.2ZM26.7044 21.635H25.2344C25.1294 20.445 25.0244 17.96 25.0244 16.665V2.84C24.4994 2.175 23.4494 1.545 22.2944 1.195L22.5744 0.354998C22.6094 0.215 22.7494 0.179998 22.9944 0.179998C24.1494 0.215 26.2494 0.634998 27.1594 1.02C27.4744 1.16 27.6144 1.37 27.5794 1.72L27.4744 3.435V15.86C27.4744 17.75 27.1594 20.235 26.7044 21.635ZM20.6844 21.32H19.2494C19.1094 20.13 19.0744 17.785 19.0744 16.42V4.73C18.5494 4.1 17.6044 3.54 16.5894 3.19L16.8694 2.385C16.9044 2.28 17.0094 2.175 17.2544 2.175C18.3744 2.245 20.2644 2.63 21.1394 3.015C21.4194 3.155 21.5244 3.33 21.5244 3.68L21.4194 5.185V15.65C21.4194 17.68 21.1044 19.99 20.6844 21.32ZM59.0031 25.835L60.2631 25.275C61.5581 25.31 63.3781 25.52 64.1831 25.8C64.4631 25.87 64.6381 26.08 64.6381 26.395C64.6381 26.99 64.2531 27.515 63.9031 27.655C62.9581 27.55 60.8931 27.48 59.8431 27.48C57.4281 27.48 41.3981 27.655 39.5431 27.76C38.6681 27.83 36.8831 28.18 36.0081 28.46C34.7481 28.04 33.4531 27.34 32.6131 26.605C32.5081 26.535 32.4731 26.43 32.5081 26.29L32.7531 25.8C33.9081 26.01 35.5181 26.15 36.6381 26.185C38.7381 26.22 56.5531 25.975 59.0031 25.835ZM51.6531 5.64L48.2931 6.235C47.9781 5.605 47.0681 4.835 46.2281 4.345L46.6831 3.61C46.7881 3.47 46.9281 3.4 47.1381 3.47C48.5031 3.75 50.4281 4.415 51.1981 4.905C51.4781 5.115 51.6531 5.36 51.6531 5.64ZM59.8781 18.205L47.5931 10.925L56.4481 14.075L58.7231 14.565C59.5981 15.195 60.7531 16.21 61.3131 16.77C61.6631 17.19 61.8381 17.505 61.8031 17.785C61.7681 18.24 61.3131 18.625 60.8931 18.59C60.6481 18.625 60.2281 18.415 59.8781 18.205ZM56.4481 14.075L56.3431 14.25L47.5931 10.925L48.6431 9.665L56.4481 14.075ZM35.1681 20.27L34.7831 19.78C34.7131 19.675 34.7481 19.57 34.8881 19.5C41.2231 15.895 46.1581 10.89 48.2931 6.235L51.6531 5.64C51.6181 5.955 51.5481 6.235 51.4431 6.445C48.9931 11.905 43.0781 17.12 35.5181 20.305C35.3431 20.375 35.2381 20.375 35.1681 20.27ZM90.7769 12.99L74.7119 13.27V11.73C77.0569 11.765 84.8269 11.625 86.9269 11.52L88.0119 10.995C89.0269 10.96 90.3919 11.065 91.1269 11.17C91.4419 11.205 91.6169 11.38 91.6169 11.66C91.6169 12.185 91.4419 12.64 91.2669 12.815C91.1269 12.92 90.9519 12.99 90.7769 12.99ZM92.1069 19.85L76.0419 20.095L76.3919 18.59C78.8419 18.625 85.9119 18.52 88.0819 18.38L89.1669 17.82C90.2169 17.785 91.7919 17.925 92.4919 18.065C92.7719 18.135 92.9469 18.31 92.9469 18.555C92.9469 19.15 92.7369 19.57 92.5969 19.71C92.4919 19.815 92.3169 19.85 92.1069 19.85ZM76.3919 18.59L76.0419 20.095C73.8719 20.13 73.0319 19.22 73.0319 17.26V12.08H75.5869V17.715C75.5869 18.345 75.7969 18.59 76.3919 18.59ZM75.5869 13.655H73.0319V6.83C72.4019 6.375 71.4919 5.99 70.5469 5.78L70.7219 4.975C70.7569 4.87 70.8619 4.8 71.1069 4.8C72.1919 4.8 74.6419 4.94 75.6569 5.115L75.5869 6.655V13.655ZM91.5469 6.375L75.2719 6.69V5.115C77.6869 5.115 85.5269 4.975 87.5569 4.87L88.6419 4.345C89.6219 4.31 91.1969 4.38 91.9669 4.52C92.2469 4.555 92.4219 4.765 92.4219 5.01C92.4219 5.57 92.2469 5.99 92.0719 6.165C91.9319 6.34 91.7919 6.375 91.5469 6.375ZM92.8069 25.905L94.0669 25.38C95.3619 25.415 97.1819 25.625 97.9869 25.87C98.2669 25.975 98.4419 26.185 98.4419 26.465C98.4419 27.06 98.0569 27.585 97.7069 27.76C96.7619 27.655 94.6969 27.585 93.6469 27.585C91.2319 27.55 75.2019 27.76 73.3469 27.865C72.4719 27.935 70.6869 28.25 69.8119 28.53C68.5519 28.145 67.2569 27.41 66.4169 26.71C66.3119 26.605 66.2769 26.5 66.3119 26.395L66.5569 25.905C67.7119 26.115 69.3219 26.255 70.4419 26.255C72.5419 26.29 90.3569 26.045 92.8069 25.905Z" fill="black"/>
</svg>
