<svg width="61" height="32" viewBox="0 0 61 32" fill="none" xmlns="http://www.w3.org/2000/svg">
<path d="M6.47635 31.88C6.15635 31.88 5.84969 31.84 5.55635 31.76C5.26302 31.68 4.96969 31.5867 4.67635 31.48C4.14302 31.24 3.56969 30.8267 2.95635 30.24C2.34302 29.68 1.83635 29.0533 1.43635 28.36C1.00969 27.6667 0.796353 27.0133 0.796353 26.4C0.796353 26.3733 0.796353 26.2933 0.796353 26.16C0.796353 26 0.809687 25.92 0.836353 25.92C1.04969 25.92 1.23635 26.04 1.39635 26.28C1.52969 26.4933 1.64969 26.6667 1.75635 26.8C2.26302 27.3867 2.86302 27.96 3.55635 28.52C4.24969 29.08 4.99635 29.5467 5.79635 29.92C6.59635 30.2933 7.38302 30.48 8.15635 30.48C8.82302 30.48 9.46302 30.3067 10.0764 29.96C10.6897 29.6133 11.2364 29.2267 11.7164 28.8C12.863 27.8133 13.943 26.56 14.9564 25.04C15.9964 23.52 16.9564 21.88 17.8364 20.12C18.743 18.3333 19.5564 16.5733 20.2764 14.84C21.023 13.1067 21.6897 11.5333 22.2764 10.12C22.5964 9.32 22.8897 8.52 23.1564 7.72C23.423 6.89333 23.7297 6.08 24.0764 5.28C21.6497 4.77333 19.1964 4.26666 16.7164 3.76C14.263 3.22667 11.7697 2.96 9.23635 2.96C8.46302 2.96 7.64969 3.01333 6.79635 3.12C5.94302 3.22667 5.14302 3.44 4.39635 3.76C3.67635 4.05333 3.07635 4.49333 2.59635 5.08C2.14302 5.66667 1.91635 6.45333 1.91635 7.44C1.91635 8.21333 2.04969 9 2.31635 9.8C2.58302 10.6 2.88969 11.3467 3.23635 12.04C3.60969 12.84 4.02302 13.4667 4.47635 13.92C4.92969 14.3467 5.55635 14.7467 6.35635 15.12C6.40969 15.1467 6.48969 15.2 6.59635 15.28C6.72969 15.3333 6.79635 15.4133 6.79635 15.52C6.79635 15.6 6.74302 15.6533 6.63635 15.68C6.55635 15.7067 6.48969 15.72 6.43635 15.72C6.40969 15.72 6.36969 15.72 6.31635 15.72C6.28969 15.6933 6.24969 15.68 6.19635 15.68C5.18302 15.4667 4.20969 14.9867 3.27635 14.24C2.34302 13.4933 1.58302 12.6133 0.996353 11.6C0.409687 10.56 0.116353 9.52 0.116353 8.48C0.116353 7.54667 0.356353 6.70667 0.836353 5.96C1.02302 5.64 1.36969 5.26667 1.87635 4.84C2.38302 4.38666 2.94302 3.94666 3.55635 3.52C4.19635 3.06667 4.80969 2.66666 5.39635 2.32C5.98302 1.94666 6.44969 1.69333 6.79635 1.56C7.54302 1.26667 8.30302 1.08 9.07635 0.999998C9.84969 0.893331 10.623 0.839998 11.3964 0.839998C13.2897 0.839998 15.1964 1.02666 17.1164 1.4C19.063 1.74666 20.9964 2.18667 22.9164 2.72C24.863 3.25333 26.7297 3.77333 28.5164 4.28C29.2364 4.49333 30.0764 4.74667 31.0364 5.04C31.9964 5.30666 32.9564 5.54667 33.9164 5.76C34.903 5.94667 35.7564 6.04 36.4764 6.04C37.2497 6.04 38.0497 5.94667 38.8764 5.76C39.7297 5.57333 40.4497 5.24 41.0364 4.76C41.623 4.25333 41.9164 3.52 41.9164 2.56C41.9164 2.26667 41.8764 2 41.7964 1.76C41.7164 1.52 41.6764 1.26666 41.6764 0.999998C41.6764 0.839999 41.7297 0.759999 41.8364 0.759999C42.1297 0.759999 42.383 0.986666 42.5964 1.44C42.8097 1.86667 42.9164 2.18667 42.9164 2.4L42.8764 2.56C42.823 3.86667 42.463 4.88 41.7964 5.6C41.1564 6.32 40.3164 6.82667 39.2764 7.12C38.263 7.41333 37.1697 7.56 35.9964 7.56C34.423 7.56 32.8497 7.4 31.2764 7.08C29.703 6.73333 28.1564 6.37333 26.6364 6C25.9164 7.52 25.223 9.06667 24.5564 10.64C23.9164 12.1867 23.263 13.7467 22.5964 15.32C21.7164 17.3733 20.7564 19.3467 19.7164 21.24C18.703 23.1333 17.4897 24.88 16.0764 26.48C14.663 28.0533 12.9164 29.3867 10.8364 30.48C10.223 30.8 9.51635 31.1067 8.71635 31.4C7.91635 31.72 7.16969 31.88 6.47635 31.88ZM27.7501 29.16C26.2034 29.16 25.4301 28.3733 25.4301 26.8C25.4301 25.6267 25.6701 24.3733 26.1501 23.04C26.6301 21.68 27.2568 20.3867 28.0301 19.16C28.8034 17.9067 29.6168 16.8933 30.4701 16.12C31.4834 15.24 32.6701 14.8 34.0301 14.8C34.3501 14.8 34.7368 14.84 35.1901 14.92C35.6701 15 36.0834 15.16 36.4301 15.4C36.7768 15.6133 36.9501 15.9333 36.9501 16.36C36.9501 16.9733 36.7234 17.68 36.2701 18.48C35.8168 19.2533 35.4034 19.88 35.0301 20.36C35.1634 20.3867 35.3234 20.4267 35.5101 20.48C35.7234 20.5333 35.8301 20.64 35.8301 20.8C35.8301 20.88 35.7634 20.92 35.6301 20.92C35.3901 20.92 35.1501 20.8933 34.9101 20.84C34.6701 20.7867 34.4301 20.76 34.1901 20.76C33.2834 20.76 32.3501 20.8933 31.3901 21.16C30.4568 21.4267 29.5634 21.7067 28.7101 22C28.4434 22.64 28.2034 23.3467 27.9901 24.12C27.8034 24.8933 27.7101 25.6267 27.7101 26.32C27.7101 26.8267 27.8034 27.28 27.9901 27.68C28.2034 28.08 28.6034 28.28 29.1901 28.28C29.9101 28.28 30.6434 28.08 31.3901 27.68C32.1634 27.2533 32.8968 26.72 33.5901 26.08C34.3101 25.4133 34.9501 24.72 35.5101 24C36.0701 23.28 36.5101 22.6267 36.8301 22.04C36.8568 22.0667 36.8701 22.12 36.8701 22.2C36.8701 22.44 36.7234 22.7733 36.4301 23.2C36.1368 23.6 35.8301 24 35.5101 24.4C35.2168 24.8 35.0434 25.0933 34.9901 25.28C34.9634 25.4667 34.9101 25.6267 34.8301 25.76C34.7768 25.8933 34.7101 26.04 34.6301 26.2C34.1768 26.6533 33.5234 27.12 32.6701 27.6C31.8434 28.0533 30.9768 28.4267 30.0701 28.72C29.1901 29.0133 28.4168 29.16 27.7501 29.16ZM29.2701 20.72C29.9634 20.5867 30.6434 20.48 31.3101 20.4C32.0034 20.32 32.6968 20.28 33.3901 20.28C33.6034 20.28 33.8168 20.28 34.0301 20.28C34.2434 20.28 34.4568 20.2933 34.6701 20.32C34.8834 19.8667 35.0568 19.3733 35.1901 18.84C35.3501 18.3067 35.4301 17.7867 35.4301 17.28C35.4301 16.88 35.3501 16.48 35.1901 16.08C35.0301 15.6533 34.6834 15.44 34.1501 15.44C33.6434 15.44 33.1234 15.6533 32.5901 16.08C32.0834 16.5067 31.6701 16.8933 31.3501 17.24C30.9234 17.7467 30.5368 18.3067 30.1901 18.92C29.8701 19.5067 29.5634 20.1067 29.2701 20.72ZM34.2754 29.84C34.2221 29.84 34.1954 29.8267 34.1954 29.8C34.1954 29.6933 34.2887 29.5467 34.4754 29.36C34.6621 29.1733 34.7821 29.0533 34.8354 29C35.8487 28.0133 36.8487 27.0133 37.8354 26C38.8221 24.96 39.8087 23.9467 40.7954 22.96C40.7421 22.7733 40.6354 22.3867 40.4754 21.8C40.3154 21.2133 40.1421 20.5867 39.9554 19.92C39.7954 19.2267 39.6487 18.6133 39.5154 18.08C39.3821 17.52 39.3154 17.1867 39.3154 17.08C39.3154 16.4667 39.5954 16.0133 40.1554 15.72C40.7421 15.4 41.2887 15.24 41.7954 15.24C41.8487 15.24 41.9287 15.28 42.0354 15.36C42.1687 15.4133 42.2487 15.4533 42.2754 15.48L42.3554 15.6V15.64C42.3554 15.6933 42.3287 15.72 42.2754 15.72C42.2221 15.6933 42.1687 15.68 42.1154 15.68C41.7687 15.68 41.5554 15.9067 41.4754 16.36C41.3954 16.7867 41.3554 17.12 41.3554 17.36C41.3554 18.08 41.4221 18.8 41.5554 19.52C41.7154 20.24 41.8887 20.9467 42.0754 21.64C42.2087 21.5067 42.4887 21.2267 42.9154 20.8C43.3421 20.3733 43.8354 19.88 44.3954 19.32C44.9821 18.7333 45.5554 18.1733 46.1154 17.64C46.6754 17.08 47.1554 16.6133 47.5554 16.24C47.9554 15.8667 48.2087 15.6667 48.3154 15.64C48.5554 15.56 48.8621 15.48 49.2354 15.4C49.6088 15.32 49.9154 15.28 50.1554 15.28C50.2621 15.28 50.3554 15.2933 50.4354 15.32C50.5421 15.32 50.5954 15.3867 50.5954 15.52C50.5954 15.7067 50.4754 15.8933 50.2354 16.08C50.0221 16.2667 49.7687 16.4267 49.4754 16.56C49.2087 16.6933 48.9954 16.8 48.8354 16.88C48.1421 17.2533 47.3954 17.7733 46.5954 18.44C45.7954 19.08 45.0221 19.76 44.2754 20.48C43.5287 21.2 42.8754 21.8533 42.3154 22.44C42.3954 22.68 42.5421 23.0933 42.7554 23.68C42.9687 24.24 43.2221 24.84 43.5154 25.48C43.8087 26.0933 44.1154 26.6267 44.4354 27.08C44.7821 27.5333 45.1287 27.76 45.4754 27.76C45.6354 27.76 45.7821 27.6933 45.9154 27.56C46.3687 27.1867 46.6621 26.6133 46.7954 25.84C46.9287 25.0667 46.9954 24.4133 46.9954 23.88C46.9954 23.2933 46.9554 22.7467 46.8754 22.24C47.0354 22.32 47.1421 22.5467 47.1954 22.92C47.2487 23.2667 47.2754 23.6267 47.2754 24C47.2754 24.2667 47.2621 24.5333 47.2354 24.8C47.2354 25.04 47.2354 25.2133 47.2354 25.32V25.48C47.3687 25.6667 47.4354 25.8133 47.4354 25.92C47.4621 26.0267 47.4888 26.1733 47.5154 26.36C47.3821 26.76 47.1954 27.1867 46.9554 27.64C46.7154 28.0933 46.4221 28.48 46.0754 28.8C45.7287 29.12 45.3154 29.28 44.8354 29.28C44.2487 29.28 43.7821 29.1067 43.4354 28.76C43.0887 28.4133 42.7821 28 42.5154 27.52C42.1687 26.88 41.8621 26.2 41.5954 25.48C41.3554 24.76 41.1687 24.1867 41.0354 23.76C40.7687 24.0267 40.4887 24.3067 40.1954 24.6C39.9287 24.8933 39.6621 25.1867 39.3954 25.48C39.0221 25.9067 38.6487 26.3333 38.2754 26.76C37.9287 27.1867 37.5687 27.6133 37.1954 28.04C37.0621 28.1733 36.7954 28.3867 36.3954 28.68C35.9954 28.9733 35.5954 29.24 35.1954 29.48C34.7687 29.72 34.4621 29.84 34.2754 29.84ZM50.1457 29.12C49.7191 29.12 49.4257 29.0133 49.2657 28.8C49.1057 28.5867 49.0257 28.28 49.0257 27.88C49.0257 27.1867 49.1857 26.32 49.5057 25.28C49.8257 24.2133 50.2257 23.0933 50.7057 21.92C51.1857 20.72 51.6524 19.5867 52.1057 18.52C52.5857 17.4267 52.9724 16.5333 53.2657 15.84C52.9191 15.8667 52.5724 15.88 52.2257 15.88C51.8791 15.88 51.5191 15.8933 51.1457 15.92C51.0924 15.8667 51.0657 15.8133 51.0657 15.76C51.0657 15.6 51.1724 15.4133 51.3857 15.2C51.5991 14.9867 51.8391 14.8133 52.1057 14.68C52.3991 14.52 52.6124 14.44 52.7457 14.44H53.8657C54.1324 13.8 54.3991 13.16 54.6657 12.52C54.9591 11.88 55.2257 11.24 55.4657 10.6C55.5991 10.2533 55.7457 9.97333 55.9057 9.76C56.0924 9.52 56.3457 9.29333 56.6657 9.08C57.1191 8.78667 57.6791 8.54667 58.3457 8.36C59.0124 8.17333 59.5991 8.08 60.1057 8.08C60.1591 8.08 60.2124 8.10667 60.2657 8.16C60.3457 8.21333 60.3991 8.25333 60.4257 8.28V8.44C60.4257 8.52 60.3857 8.54667 60.3057 8.52C60.2524 8.49333 60.1991 8.48 60.1457 8.48C59.8257 8.48 59.4524 8.74667 59.0257 9.28C58.5991 9.78667 58.1591 10.4 57.7057 11.12C57.2524 11.84 56.8524 12.5333 56.5057 13.2C56.1857 13.84 55.9591 14.28 55.8257 14.52H57.4257C57.8524 14.52 58.2791 14.52 58.7057 14.52C59.1324 14.4933 59.5591 14.4533 59.9857 14.4L60.0257 14.48C59.9991 14.48 59.9857 14.4933 59.9857 14.52C59.9857 14.5467 59.9724 14.56 59.9457 14.56C59.8657 14.64 59.6657 14.7733 59.3457 14.96C59.0257 15.12 58.7057 15.2667 58.3857 15.4C58.0657 15.5333 57.8391 15.6133 57.7057 15.64C57.2791 15.6933 56.8524 15.7333 56.4257 15.76C56.0257 15.7867 55.6124 15.8 55.1857 15.8C54.9191 16.3867 54.5724 17.16 54.1457 18.12C53.7191 19.08 53.2924 20.1067 52.8657 21.2C52.4391 22.2667 52.0791 23.2933 51.7857 24.28C51.5191 25.24 51.3857 26.04 51.3857 26.68C51.3857 26.84 51.4124 27.0267 51.4657 27.24C51.5191 27.4533 51.6524 27.56 51.8657 27.56C52.0524 27.56 52.2391 27.4933 52.4257 27.36C53.0124 27.0133 53.5857 26.5467 54.1457 25.96C54.7324 25.3467 55.2657 24.6933 55.7457 24C56.2524 23.28 56.6524 22.6267 56.9457 22.04C56.9991 22.0667 57.0257 22.12 57.0257 22.2C57.0257 22.36 56.9324 22.6 56.7457 22.92C56.5591 23.2133 56.3457 23.5333 56.1057 23.88C55.8657 24.2267 55.6391 24.5333 55.4257 24.8C55.2391 25.0667 55.1457 25.2267 55.1457 25.28C55.1191 25.4933 55.0657 25.6533 54.9857 25.76C54.9324 25.84 54.8657 25.9867 54.7857 26.2C54.4391 26.52 53.9991 26.92 53.4657 27.4C52.9324 27.8533 52.3724 28.2533 51.7857 28.6C51.1991 28.9467 50.6524 29.12 50.1457 29.12Z" fill="black"/>
</svg>
