<svg width="69" height="32" viewBox="0 0 69 32" fill="none" xmlns="http://www.w3.org/2000/svg">
<path d="M28.522 1.95C29.2453 2.09 29.782 2.335 30.132 2.685C30.5053 3.035 30.692 3.44333 30.692 3.91C30.692 4.68 30.4703 5.24 30.027 5.59C29.607 5.94 28.9303 6.08 27.997 6.01C25.897 5.84667 24.252 5.74167 23.062 5.695C21.8953 5.625 20.3553 5.57833 18.442 5.555C17.5787 9.84833 16.7853 14.165 16.062 18.505C15.8053 20.0917 15.537 21.935 15.257 24.035C14.977 26.1117 14.7903 27.7917 14.697 29.075C14.6503 29.7517 14.3703 30.2767 13.857 30.65C13.3437 31 12.7253 31.175 12.002 31.175C11.232 31.175 10.637 30.9883 10.217 30.615C9.797 30.2417 9.587 29.7517 9.587 29.145C9.587 28.585 9.66867 27.6633 9.832 26.38C10.0187 25.0733 10.2287 23.7083 10.462 22.285C10.7187 20.8617 10.917 19.625 11.057 18.575C11.3137 16.8017 11.6053 15.04 11.932 13.29C12.2587 11.54 12.5853 9.88333 12.912 8.32C12.982 7.97 13.0637 7.57333 13.157 7.13C13.2503 6.66333 13.3553 6.15 13.472 5.59C11.1853 5.66 9.38867 5.84667 8.082 6.15C6.77533 6.45333 5.842 6.885 5.282 7.445C4.74533 7.98167 4.477 8.68167 4.477 9.545C4.477 10.3383 4.71033 11.0967 5.177 11.82C5.27033 11.9833 5.317 12.1583 5.317 12.345C5.317 12.7883 5.04866 13.2083 4.512 13.605C3.99866 13.9783 3.462 14.165 2.902 14.165C2.50533 14.165 2.17866 14.0483 1.922 13.815C1.45533 13.4183 1.07033 12.8583 0.766998 12.135C0.463665 11.3883 0.311998 10.5483 0.311998 9.615C0.311998 7.63167 0.953665 6.045 2.237 4.855C3.54366 3.64167 5.51533 2.755 8.152 2.195C10.812 1.635 14.2187 1.355 18.372 1.355C20.9387 1.355 22.9803 1.40166 24.497 1.495C26.037 1.58833 27.3787 1.74 28.522 1.95ZM37.6368 23.195C37.9401 23.195 38.1734 23.335 38.3368 23.615C38.5234 23.895 38.6168 24.28 38.6168 24.77C38.6168 25.7033 38.3951 26.4267 37.9518 26.94C37.0884 27.99 35.8634 28.9583 34.2768 29.845C32.7134 30.7317 31.0334 31.175 29.2368 31.175C26.7868 31.175 24.8851 30.51 23.5318 29.18C22.1784 27.85 21.5018 26.03 21.5018 23.72C21.5018 22.11 21.8401 20.6167 22.5168 19.24C23.1934 17.84 24.1268 16.7317 25.3168 15.915C26.5301 15.0983 27.8951 14.69 29.4118 14.69C30.7651 14.69 31.8501 15.0983 32.6668 15.915C33.4834 16.7083 33.8918 17.7933 33.8918 19.17C33.8918 20.78 33.3084 22.1683 32.1418 23.335C30.9984 24.4783 29.0501 25.3883 26.2968 26.065C26.8801 27.1383 27.9884 27.675 29.6218 27.675C30.6718 27.675 31.8618 27.3133 33.1918 26.59C34.5451 25.8433 35.7118 24.875 36.6918 23.685C36.9718 23.3583 37.2868 23.195 37.6368 23.195ZM28.8168 18.12C27.9534 18.12 27.2184 18.6217 26.6118 19.625C26.0284 20.6283 25.7368 21.8417 25.7368 23.265V23.335C27.1134 23.0083 28.1984 22.5183 28.9918 21.865C29.7851 21.2117 30.1818 20.4533 30.1818 19.59C30.1818 19.1467 30.0534 18.7967 29.7968 18.54C29.5634 18.26 29.2368 18.12 28.8168 18.12ZM55.9661 23.195C56.2694 23.195 56.5028 23.335 56.6661 23.615C56.8528 23.895 56.9461 24.28 56.9461 24.77C56.9461 25.7033 56.7244 26.4267 56.2811 26.94C55.2544 28.1533 54.1228 29.1683 52.8861 29.985C51.6728 30.7783 50.2961 31.175 48.7561 31.175C47.5661 31.175 46.5044 30.9533 45.5711 30.51C44.6611 30.0667 43.9378 29.4367 43.4011 28.62C42.0711 30.3 40.4961 31.14 38.6761 31.14C37.3928 31.14 36.3778 30.7667 35.6311 30.02C34.8844 29.2733 34.5111 28.2817 34.5111 27.045C34.5111 25.8783 34.7794 24.9333 35.3161 24.21C35.8528 23.4867 36.6111 23.125 37.5911 23.125C38.4311 23.125 38.8511 23.44 38.8511 24.07C38.8511 24.2333 38.8278 24.525 38.7811 24.945C38.7111 25.785 38.6761 26.2633 38.6761 26.38C38.6761 27.08 38.9794 27.43 39.5861 27.43C40.0294 27.43 40.4494 27.1733 40.8461 26.66C41.2661 26.1233 41.6044 25.4 41.8611 24.49C42.1411 23.58 42.2811 22.5767 42.2811 21.48C42.2811 20.64 42.1761 19.94 41.9661 19.38C41.7561 18.7967 41.4994 18.505 41.1961 18.505C40.9394 18.505 40.7528 18.575 40.6361 18.715C40.5194 18.8317 40.4028 19.0417 40.2861 19.345C40.1461 19.7183 39.9594 20.0217 39.7261 20.255C39.4928 20.465 39.0844 20.57 38.5011 20.57C37.9878 20.57 37.5794 20.395 37.2761 20.045C36.9728 19.6717 36.8211 19.1117 36.8211 18.365C36.8211 17.175 37.1828 16.2417 37.9061 15.565C38.6294 14.8883 39.5628 14.55 40.7061 14.55C41.6861 14.55 42.5728 14.795 43.3661 15.285C44.1594 15.7517 44.7661 16.44 45.1861 17.35C45.8861 16.4167 46.6678 15.7167 47.5311 15.25C48.4178 14.7833 49.2811 14.55 50.1211 14.55C51.0311 14.55 51.7194 14.76 52.1861 15.18C52.6761 15.6 52.9211 16.2767 52.9211 17.21C52.9211 18.26 52.7228 19.0883 52.3261 19.695C51.9294 20.2783 51.4511 20.57 50.8911 20.57C50.3778 20.57 50.0278 20.465 49.8411 20.255C49.6544 20.045 49.5144 19.7417 49.4211 19.345C49.3744 19.065 49.3044 18.855 49.2111 18.715C49.1178 18.575 48.9544 18.505 48.7211 18.505C48.4411 18.505 48.1378 18.7733 47.8111 19.31C47.5078 19.8233 47.2394 20.5117 47.0061 21.375C46.7961 22.2383 46.6911 23.1367 46.6911 24.07C46.6911 25.1667 46.9478 26.0183 47.4611 26.625C47.9978 27.2083 48.7211 27.5 49.6311 27.5C50.5411 27.5 51.3928 27.1967 52.1861 26.59C53.0028 25.96 53.9478 24.9917 55.0211 23.685C55.3011 23.3583 55.6161 23.195 55.9661 23.195ZM60.0674 18.015C60.0207 19.1817 59.9974 20.0917 59.9974 20.745C59.9974 22.425 60.0791 23.7433 60.2424 24.7C60.4291 25.6333 60.7207 26.31 61.1174 26.73C61.5374 27.1267 62.1091 27.325 62.8324 27.325C63.2057 27.325 63.6491 27.2083 64.1624 26.975C64.6757 26.7417 65.1424 26.4383 65.5624 26.065C65.8191 25.8317 66.0757 25.715 66.3324 25.715C66.6124 25.715 66.8341 25.8783 66.9974 26.205C67.1841 26.5083 67.2774 26.8817 67.2774 27.325C67.2774 27.7683 67.1841 28.2 66.9974 28.62C66.8341 29.04 66.5774 29.39 66.2274 29.67C65.0141 30.6733 63.6374 31.175 62.0974 31.175C59.8807 31.175 58.2591 30.2533 57.2324 28.41C56.2057 26.5433 55.6924 24.1167 55.6924 21.13C55.6924 20.1033 55.7274 19.065 55.7974 18.015H54.4324C53.7324 18.015 53.2541 17.8867 52.9974 17.63C52.7641 17.3733 52.6474 16.965 52.6474 16.405C52.6474 15.0983 53.1724 14.445 54.2224 14.445H56.2174C56.6141 11.8783 57.2207 9.53333 58.0374 7.41C58.8541 5.28667 59.8341 3.595 60.9774 2.335C62.1441 1.075 63.3924 0.444999 64.7224 0.444999C65.7024 0.444999 66.4724 0.876666 67.0324 1.74C67.5924 2.60333 67.8724 3.68833 67.8724 4.995C67.8724 8.61167 66.3557 11.7617 63.3224 14.445H67.2424C67.6157 14.445 67.8841 14.5267 68.0474 14.69C68.2107 14.8533 68.2924 15.1567 68.2924 15.6C68.2924 17.21 66.9741 18.015 64.3374 18.015H60.0674ZM63.7774 3.805C63.4274 3.805 63.0307 4.24833 62.5874 5.135C62.1674 5.99833 61.7591 7.21167 61.3624 8.775C60.9891 10.315 60.6741 12.03 60.4174 13.92C61.7941 12.73 62.8207 11.4 63.4974 9.93C64.1974 8.43667 64.5474 7.08333 64.5474 5.87C64.5474 4.49333 64.2907 3.805 63.7774 3.805Z" fill="black"/>
</svg>
