<svg width="79" height="27" viewBox="0 0 79 27" fill="none" xmlns="http://www.w3.org/2000/svg">
<path d="M7.12124 8.76953C7.01707 8.76953 6.81525 8.79557 6.51577 8.84766C6.22931 8.88672 5.89077 8.9388 5.50014 9.00391C5.10952 9.06901 4.69936 9.14714 4.26968 9.23828C3.83999 9.31641 3.43634 9.38802 3.05874 9.45312C2.68113 9.51823 2.35561 9.57682 2.08218 9.62891C1.79572 9.66797 1.60692 9.6875 1.51577 9.6875C0.643374 9.6875 0.207176 9.23177 0.207176 8.32031C0.207176 8.07292 0.233218 7.83203 0.285301 7.59766C0.324364 7.35026 0.402489 7.12891 0.519676 6.93359C0.636864 6.72526 0.793114 6.54948 0.988426 6.40625C1.18374 6.26302 1.43113 6.16536 1.73061 6.11328C3.25405 5.87891 4.77098 5.63151 6.28139 5.37109C7.79181 5.11068 9.31525 4.83724 10.8517 4.55078C11.1902 4.48568 11.4962 4.42708 11.7697 4.375C12.0431 4.3099 12.3491 4.22526 12.6876 4.12109C13.0522 4.01693 13.4494 3.91927 13.8791 3.82812C14.3087 3.72396 14.7384 3.63281 15.1681 3.55469C15.6108 3.47656 16.034 3.41146 16.4376 3.35938C16.8543 3.30729 17.2319 3.28125 17.5705 3.28125C17.9871 3.28125 18.2996 3.41797 18.508 3.69141C18.7293 3.95182 18.84 4.32292 18.84 4.80469C18.84 5.05208 18.8205 5.29297 18.7814 5.52734C18.7423 5.7487 18.6707 5.95052 18.5666 6.13281C18.4624 6.3151 18.3192 6.46484 18.1369 6.58203C17.9546 6.69922 17.7202 6.77083 17.4337 6.79688C16.6916 6.90104 15.8973 7.03125 15.0509 7.1875C14.2046 7.33073 13.4689 7.49349 12.8439 7.67578C12.5835 7.75391 12.3882 7.88411 12.258 8.06641C12.1277 8.23568 12.0431 8.45052 12.0041 8.71094C11.965 8.95833 11.9389 9.21224 11.9259 9.47266C11.9259 9.72005 11.9259 9.96094 11.9259 10.1953C11.9259 10.7422 11.9455 11.2891 11.9845 11.8359C12.0366 12.3828 12.0822 12.9297 12.1212 13.4766C12.2384 15.3516 12.4142 17.207 12.6486 19.043C12.896 20.8789 13.1629 22.7344 13.4494 24.6094C13.4754 24.6745 13.4884 24.7396 13.4884 24.8047C13.4884 24.8698 13.4884 24.9349 13.4884 25C13.4884 25.7161 13.0848 26.224 12.2775 26.5234L11.3986 26.7969C11.1642 26.875 10.9363 26.9141 10.715 26.9141C10.3764 26.9141 10.103 26.8034 9.89468 26.582C9.68634 26.3737 9.54962 26.0612 9.48452 25.6445C9.11994 23.4049 8.80093 21.1784 8.52749 18.9648C8.25405 16.7383 8.07827 14.4987 8.00014 12.2461C7.9741 11.8815 7.95457 11.4844 7.94155 11.0547C7.92853 10.625 7.92202 10.1823 7.92202 9.72656C7.92202 9.08854 7.65509 8.76953 7.12124 8.76953ZM35.715 20.7227C36.0926 20.3971 36.4637 20.2344 36.8283 20.2344C37.0366 20.2344 37.2254 20.2865 37.3947 20.3906C37.5639 20.4948 37.7527 20.6576 37.9611 20.8789C38.1564 21.1784 38.2931 21.4258 38.3712 21.6211C38.4624 21.8034 38.508 21.9857 38.508 22.168C38.508 22.5586 38.3126 22.9297 37.922 23.2812C37.297 23.8021 36.6199 24.2708 35.8908 24.6875C35.1616 25.0911 34.3999 25.4362 33.6056 25.7227C32.8113 26.0091 31.991 26.224 31.1447 26.3672C30.2983 26.5234 29.4585 26.6016 28.6251 26.6016C27.5705 26.6016 26.5809 26.4648 25.6564 26.1914C24.7319 25.931 23.9051 25.5534 23.1759 25.0586C22.4598 24.5638 21.8543 23.9714 21.3595 23.2812C20.8647 22.5781 20.5132 21.7904 20.3048 20.918C20.1876 20.5534 20.077 20.319 19.9728 20.2148C19.8817 20.0977 19.7254 20.0391 19.5041 20.0391C19.0223 20.0391 18.6512 19.9219 18.3908 19.6875C18.1304 19.4531 18.0001 19.1146 18.0001 18.6719C18.0001 18.4896 18.0132 18.3724 18.0392 18.3203L18.0783 17.9297C18.1434 17.4609 18.2671 17.1224 18.4494 16.9141C18.6447 16.7057 18.9442 16.6016 19.3478 16.6016H19.6408C20.1876 16.6016 20.5718 16.3477 20.7931 15.8398C21.1968 14.9414 21.7111 14.1211 22.3361 13.3789C22.9611 12.6367 23.6642 12.0052 24.4455 11.4844C25.2267 10.9505 26.06 10.5404 26.9455 10.2539C27.8439 9.95443 28.7554 9.80469 29.6798 9.80469C30.6434 9.80469 31.5418 9.94792 32.3751 10.2344C33.2215 10.5078 33.9572 10.8919 34.5822 11.3867C35.2072 11.8815 35.6955 12.4609 36.047 13.125C36.4116 13.7891 36.5939 14.5052 36.5939 15.2734C36.5939 15.8073 36.4897 16.2956 36.2814 16.7383C36.0731 17.181 35.7736 17.5716 35.383 17.9102C34.9923 18.2357 34.5171 18.5026 33.9572 18.7109C33.4103 18.9193 32.7853 19.056 32.0822 19.1211L25.3048 19.8047C25.0444 19.8047 24.8296 19.8698 24.6603 20C24.5041 20.1302 24.4259 20.306 24.4259 20.5273C24.4259 20.8659 24.5496 21.1914 24.797 21.5039C25.0574 21.8164 25.396 22.0964 25.8126 22.3438C26.2423 22.5781 26.7306 22.7669 27.2775 22.9102C27.8374 23.0534 28.4103 23.125 28.9962 23.125C29.5561 23.125 30.1291 23.0729 30.715 22.9688C31.3139 22.8516 31.8999 22.6888 32.4728 22.4805C33.0587 22.2721 33.6251 22.0247 34.172 21.7383C34.7189 21.4388 35.2332 21.1003 35.715 20.7227ZM31.3595 15.6836C31.5548 15.6445 31.7241 15.5534 31.8673 15.4102C32.0106 15.2539 32.0822 15.0651 32.0822 14.8438C32.0822 14.6484 32.0106 14.4661 31.8673 14.2969C31.7241 14.1276 31.5288 13.9779 31.2814 13.8477C31.034 13.7044 30.7475 13.5938 30.422 13.5156C30.0965 13.4375 29.7514 13.3984 29.3869 13.3984C28.853 13.3984 28.3061 13.4766 27.7462 13.6328C27.1863 13.7891 26.6785 13.9974 26.2228 14.2578C25.7671 14.5052 25.396 14.7852 25.1095 15.0977C24.8231 15.3971 24.6798 15.6966 24.6798 15.9961C24.6798 16.2956 24.8621 16.4453 25.2267 16.4453C25.4481 16.4453 25.8061 16.4193 26.3009 16.3672C26.7957 16.3151 27.3426 16.2565 27.9416 16.1914C28.5405 16.1133 29.146 16.0286 29.758 15.9375C30.3699 15.8464 30.9038 15.7617 31.3595 15.6836ZM40.3048 8.51562C40.1356 8.24219 40.0249 8.01432 39.9728 7.83203C39.9207 7.63672 39.8947 7.48047 39.8947 7.36328C39.8947 7.14193 39.9923 6.91406 40.1876 6.67969C40.383 6.44531 40.6238 6.23698 40.9103 6.05469C41.1968 5.85938 41.5027 5.70312 41.8283 5.58594C42.1538 5.45573 42.4402 5.39062 42.6876 5.39062C42.8309 5.39062 42.9806 5.44922 43.1369 5.56641C43.3061 5.67057 43.534 5.95052 43.8205 6.40625C44.2762 7.14844 44.7514 7.91667 45.2462 8.71094C45.7541 9.50521 46.2879 10.306 46.8478 11.1133C47.0692 11.4128 47.297 11.5625 47.5314 11.5625C47.7918 11.5625 48.0327 11.4258 48.2541 11.1523C49.1395 10.1758 50.0314 9.27083 50.9298 8.4375C51.8283 7.60417 52.7267 6.92708 53.6251 6.40625C54.172 6.08073 54.6212 5.86589 54.9728 5.76172C55.3244 5.65755 55.5783 5.60547 55.7345 5.60547C55.9819 5.60547 56.2358 5.68359 56.4962 5.83984C56.7567 5.99609 56.991 6.19141 57.1994 6.42578C57.4207 6.64714 57.5965 6.88151 57.7267 7.12891C57.8699 7.3763 57.9416 7.59766 57.9416 7.79297C57.9416 8.09245 57.7527 8.38542 57.3751 8.67188C57.0106 8.95833 56.4767 9.3099 55.7736 9.72656C54.797 10.3255 53.866 11.0286 52.9806 11.8359C52.1082 12.6432 51.2684 13.4961 50.4611 14.3945C50.3309 14.5247 50.2397 14.6484 50.1876 14.7656C50.1486 14.8828 50.1291 15 50.1291 15.1172C50.1291 15.2214 50.1486 15.332 50.1876 15.4492C50.2397 15.5664 50.3179 15.6836 50.422 15.8008C50.9038 16.3607 51.3856 16.875 51.8673 17.3438C52.3491 17.8125 52.8113 18.2161 53.2541 18.5547C53.7098 18.8802 54.146 19.1406 54.5626 19.3359C54.9923 19.5182 55.396 19.6094 55.7736 19.6094C56.0731 19.6094 56.3921 19.5703 56.7306 19.4922C57.0692 19.401 57.3751 19.3555 57.6486 19.3555C58.0262 19.3555 58.2866 19.4727 58.4298 19.707C58.5861 19.9284 58.6642 20.2279 58.6642 20.6055C58.6642 21.0352 58.5861 21.4193 58.4298 21.7578C58.2736 22.0964 58.0587 22.3828 57.7853 22.6172C57.5249 22.8385 57.2124 23.0143 56.8478 23.1445C56.4832 23.2617 56.0991 23.3203 55.6955 23.3203C55.0705 23.3203 54.4324 23.2096 53.7814 22.9883C53.1304 22.7669 52.4793 22.4609 51.8283 22.0703C51.1772 21.6797 50.5327 21.224 49.8947 20.7031C49.2567 20.1693 48.6317 19.5898 48.0197 18.9648C47.7853 18.7174 47.5444 18.5938 47.297 18.5938C47.0366 18.5938 46.7957 18.7305 46.5744 19.0039C45.9624 19.7591 45.3699 20.4688 44.797 21.1328C44.2371 21.7969 43.6902 22.3763 43.1564 22.8711C42.6356 23.3659 42.1277 23.7565 41.633 24.043C41.1512 24.3294 40.6759 24.4727 40.2072 24.4727C39.8686 24.4727 39.5692 24.4076 39.3087 24.2773C39.0613 24.1341 38.853 23.9648 38.6837 23.7695C38.5145 23.5742 38.3843 23.3724 38.2931 23.1641C38.215 22.9557 38.1759 22.7799 38.1759 22.6367C38.1759 22.4544 38.241 22.2852 38.3712 22.1289C38.5014 21.9596 38.6902 21.7773 38.9376 21.582C39.185 21.3737 39.4715 21.1263 39.797 20.8398C40.1356 20.5534 40.5132 20.1953 40.9298 19.7656C41.3856 19.3099 41.8869 18.75 42.4337 18.0859C42.9806 17.4089 43.5731 16.6862 44.2111 15.918C44.2762 15.8398 44.3283 15.7552 44.3673 15.6641C44.4064 15.5599 44.4259 15.4557 44.4259 15.3516C44.4259 14.987 44.2241 14.5247 43.8205 13.9648C43.0132 12.8581 42.31 11.8229 41.7111 10.8594C41.1121 9.88281 40.6434 9.10156 40.3048 8.51562ZM62.6291 2.44141C62.6291 1.7513 62.8244 1.26953 63.215 0.996094C63.6056 0.709635 64.2501 0.566406 65.1486 0.566406C65.4741 0.566406 65.7475 0.598958 65.9689 0.664062C66.2033 0.716146 66.3986 0.820312 66.5548 0.976562C66.7241 1.13281 66.8543 1.34115 66.9455 1.60156C67.0496 1.84896 67.1343 2.16797 67.1994 2.55859C67.3556 3.76953 67.5249 5.01953 67.7072 6.30859C67.9025 7.59766 68.1043 8.89323 68.3126 10.1953C68.3908 10.7812 68.6968 11.0742 69.2306 11.0742C69.3738 11.0742 69.6082 11.0612 69.9337 11.0352C70.2723 10.9961 70.6694 10.957 71.1251 10.918C71.5809 10.8659 72.0692 10.8138 72.59 10.7617C73.1238 10.7096 73.6512 10.6641 74.172 10.625C74.7059 10.5729 75.2072 10.5339 75.6759 10.5078C76.1577 10.4688 76.5809 10.4492 76.9455 10.4492C77.2319 10.4492 77.4598 10.5078 77.6291 10.625C77.7983 10.7292 77.9285 10.8724 78.0197 11.0547C78.1238 11.224 78.1889 11.4193 78.215 11.6406C78.2541 11.849 78.2736 12.0638 78.2736 12.2852C78.2736 12.4805 78.2345 12.6823 78.1564 12.8906C78.0913 13.099 77.9936 13.2878 77.8634 13.457C77.7462 13.6133 77.5965 13.7435 77.4142 13.8477C77.2319 13.9518 77.0236 14.0039 76.7892 14.0039C75.6564 14.0039 74.5106 14.043 73.3517 14.1211C72.2059 14.1862 71.06 14.2773 69.9142 14.3945C69.3283 14.4727 69.0353 14.7656 69.0353 15.2734C69.0353 15.3125 69.0418 15.3646 69.0548 15.4297C69.0679 15.4818 69.0744 15.5273 69.0744 15.5664C69.2306 16.6992 69.3738 17.7604 69.5041 18.75C69.6473 19.7396 69.7645 20.625 69.8556 21.4062C69.9598 22.1745 70.0379 22.819 70.09 23.3398C70.1551 23.8477 70.1876 24.1862 70.1876 24.3555C70.1876 24.8242 70.1421 25.2148 70.0509 25.5273C69.9598 25.8529 69.81 26.1133 69.6017 26.3086C69.3934 26.5169 69.1134 26.6602 68.7619 26.7383C68.4233 26.8294 67.9936 26.875 67.4728 26.875C66.978 26.875 66.6134 26.7578 66.3791 26.5234C66.1447 26.2891 66.0145 25.931 65.9884 25.4492C65.9103 23.9128 65.7866 22.3698 65.6173 20.8203C65.4481 19.2578 65.2527 17.7018 65.0314 16.1523C64.9142 15.5924 64.6212 15.3125 64.1525 15.3125C64.1134 15.3125 64.0679 15.319 64.0158 15.332C63.9637 15.3451 63.9181 15.3516 63.8791 15.3516C63.0718 15.5339 62.31 15.7161 61.5939 15.8984C60.8777 16.0807 60.2072 16.276 59.5822 16.4844C59.2306 16.6016 58.9181 16.6862 58.6447 16.7383C58.3712 16.7773 58.1238 16.7969 57.9025 16.7969C57.603 16.7969 57.3817 16.6667 57.2384 16.4062C57.0952 16.1328 57.0236 15.7943 57.0236 15.3906C57.0236 15.2474 57.0366 15.0846 57.0626 14.9023C57.0887 14.707 57.1408 14.5182 57.2189 14.3359C57.284 14.1406 57.3882 13.9648 57.5314 13.8086C57.6616 13.6393 57.8439 13.5026 58.0783 13.3984C58.6251 13.1771 59.3543 12.9492 60.2658 12.7148C61.1772 12.4674 62.2059 12.2396 63.3517 12.0312C63.6121 11.9661 63.8139 11.862 63.9572 11.7188C64.1134 11.5625 64.1916 11.3346 64.1916 11.0352C64.1916 10.9701 64.1916 10.9049 64.1916 10.8398C64.1916 10.7617 64.1785 10.6836 64.1525 10.6055C63.9442 9.40755 63.7423 8.32031 63.547 7.34375C63.3647 6.35417 63.202 5.50781 63.0587 4.80469C62.9285 4.10156 62.8244 3.54818 62.7462 3.14453C62.6681 2.74089 62.6291 2.50651 62.6291 2.44141Z" fill="black"/>
</svg>
