<svg width="62" height="23" viewBox="0 0 62 23" fill="none" xmlns="http://www.w3.org/2000/svg">
<path d="M10.7935 2.85449V19.7441L13.1812 20.1543V22H5.52007V20.1543L7.90777 19.7441V2.85449H3.07378L2.64898 5.81348H0.48101V0.671875H18.2056V5.81348H16.0669L15.6275 2.85449H10.7935ZM27.0679 22.3076C25.6031 22.3076 24.3287 21.9707 23.2447 21.2969C22.1607 20.6328 21.3209 19.7051 20.7252 18.5137C20.1392 17.3223 19.8462 15.9453 19.8462 14.3828V13.7383C19.8462 12.2246 20.1587 10.877 20.7837 9.69531C21.399 8.50391 22.2193 7.56641 23.2447 6.88281C24.2798 6.19922 25.4078 5.85742 26.6285 5.85742C28.0543 5.85742 29.2505 6.15039 30.2173 6.73633C31.1744 7.32227 31.897 8.14746 32.3853 9.21191C32.8736 10.2666 33.1177 11.5117 33.1177 12.9473V14.749H22.8345L22.7906 14.8223C22.8003 15.8184 22.981 16.7168 23.3326 17.5176C23.6744 18.3086 24.1578 18.9287 24.7828 19.3779C25.4175 19.8271 26.1793 20.0518 27.0679 20.0518C28.0445 20.0518 28.899 19.915 29.6314 19.6416C30.3736 19.3584 31.0132 18.9727 31.5503 18.4844L32.6783 20.3594C32.1119 20.9062 31.3599 21.3701 30.4224 21.751C29.4947 22.1221 28.3765 22.3076 27.0679 22.3076ZM22.8931 12.4199L22.9224 12.4932H30.232V12.1123C30.232 11.3408 30.1002 10.6572 29.8365 10.0615C29.563 9.45605 29.1578 8.98242 28.6207 8.64062C28.0933 8.29883 27.4293 8.12793 26.6285 8.12793C25.9937 8.12793 25.4078 8.31348 24.8707 8.68457C23.7769 9.47559 23.1177 10.7207 22.8931 12.4199ZM43.0347 15.7598L39.6656 19.9932L41.3794 20.1543V22H34.9048V20.1543L36.6627 19.8174L41.3941 13.9873L36.7652 8.34766L35.1978 8.01074V6.15039H41.4087V8.01074L39.8267 8.18652L43.0787 12.2295L46.2427 8.17188L44.5435 8.01074V6.15039H50.6519V8.01074L49.0406 8.34766L44.7486 13.9434L49.6851 19.8174L51.3257 20.1543V22H44.6021V20.1543L46.5064 19.9932L43.0347 15.7598ZM58.606 22.249C57.4341 22.249 56.5015 21.9072 55.8082 21.2236C55.1246 20.5303 54.7828 19.4268 54.7828 17.9131V8.28906H52.2779V6.15039H54.7828V2.32715H57.6685V6.15039H61.1109V8.28906H57.6685V17.9131C57.6685 18.6748 57.8199 19.2363 58.1226 19.5977C58.4253 19.959 58.8306 20.1396 59.3384 20.1396C59.6802 20.1396 60.0611 20.1104 60.481 20.0518C60.9009 19.9834 61.2281 19.9248 61.4625 19.876L61.858 21.7656C61.438 21.8926 60.9205 22.0049 60.3052 22.1025C59.6998 22.2002 59.1334 22.249 58.606 22.249Z" fill="black"/>
</svg>
