<svg width="69" height="25" viewBox="0 0 69 25" fill="none" xmlns="http://www.w3.org/2000/svg">
<path d="M2.95849 5.052C2.19316 5.052 1.65183 5.01467 1.33449 4.94C1.01716 4.84667 0.821161 4.72533 0.746494 4.576C0.690494 4.42667 0.662494 4.27733 0.662494 4.128C0.662494 3.92267 0.765161 3.736 0.970494 3.568C1.19449 3.38133 1.64249 3.232 2.31449 3.12C3.17316 2.93333 4.18116 2.74667 5.33849 2.56C6.51449 2.35467 7.76516 2.168 9.09049 2C10.4158 1.81333 11.7412 1.64533 13.0665 1.496C14.4105 1.34667 15.6892 1.23467 16.9025 1.16C18.1345 1.06667 19.2265 1.02 20.1785 1.02C21.4478 1.02 22.3065 1.132 22.7545 1.356C23.2212 1.58 23.4545 1.82267 23.4545 2.084C23.4545 2.32667 23.3238 2.55067 23.0625 2.756C22.8198 2.96133 22.3998 3.064 21.8025 3.064C21.5598 3.064 20.9998 3.12 20.1225 3.232C19.2452 3.32533 18.1718 3.456 16.9025 3.624C15.6518 3.77333 14.3265 3.94133 12.9265 4.128C12.8332 4.76267 12.6932 5.60267 12.5065 6.648C12.3198 7.67467 12.1052 8.804 11.8625 10.036C11.6385 11.268 11.4052 12.5093 11.1625 13.76C10.9385 14.992 10.7238 16.14 10.5185 17.204C10.3318 18.268 10.1732 19.1453 10.0425 19.836C9.91183 20.5267 9.83716 20.9373 9.81849 21.068C9.74383 21.6467 9.57583 22.0853 9.31449 22.384C9.07183 22.664 8.80116 22.804 8.50249 22.804C8.14783 22.804 7.84916 22.6547 7.60649 22.356C7.38249 22.0387 7.27049 21.488 7.27049 20.704C7.27049 20.4427 7.32649 19.9387 7.43849 19.192C7.55049 18.4267 7.69983 17.5213 7.88649 16.476C8.07316 15.4307 8.27849 14.32 8.50249 13.144C8.72649 11.968 8.95049 10.82 9.17449 9.7C9.39849 8.56133 9.60383 7.53467 9.79049 6.62C9.97716 5.68667 10.1172 4.95867 10.2105 4.436C8.73583 4.604 7.34516 4.75333 6.03849 4.884C4.75049 4.996 3.72383 5.052 2.95849 5.052ZM30.5709 10.932C30.5709 11.5293 30.3842 12.1173 30.0109 12.696C29.6375 13.256 29.1429 13.7973 28.5269 14.32C27.9109 14.824 27.2295 15.3 26.4829 15.748C25.7362 16.196 24.9895 16.588 24.2429 16.924C23.4962 17.26 22.8149 17.5307 22.1989 17.736C22.0495 18.464 21.9749 19.108 21.9749 19.668C21.9749 20.0227 22.0589 20.2747 22.2269 20.424C22.3949 20.5733 22.6562 20.648 23.0109 20.648C23.7949 20.648 24.6255 20.508 25.5029 20.228C26.3802 19.948 27.2762 19.584 28.1909 19.136C29.1055 18.688 29.9829 18.212 30.8229 17.708C31.6629 17.204 32.4282 16.728 33.1189 16.28C33.8282 15.832 34.4162 15.468 34.8829 15.188C35.3495 14.908 35.6575 14.768 35.8069 14.768C36.0309 14.768 36.1989 14.8427 36.3109 14.992C36.4415 15.1227 36.5069 15.2813 36.5069 15.468C36.5069 15.6173 36.2735 15.9067 35.8069 16.336C35.3589 16.7653 34.7522 17.2693 33.9869 17.848C33.2215 18.408 32.3629 18.9867 31.4109 19.584C30.4589 20.1813 29.4695 20.7413 28.4429 21.264C27.4349 21.7867 26.4549 22.2067 25.5029 22.524C24.5695 22.8413 23.7295 23 22.9829 23C22.0122 23 21.2562 22.636 20.7149 21.908C20.1735 21.18 19.9029 20.0507 19.9029 18.52C19.9029 17.4933 20.0335 16.4573 20.2949 15.412C20.5749 14.3667 20.9482 13.368 21.4149 12.416C21.9002 11.4453 22.4322 10.5867 23.0109 9.84C23.6082 9.07467 24.2335 8.47733 24.8869 8.048C25.5402 7.6 26.1749 7.376 26.7909 7.376C27.9669 7.376 28.8909 7.70267 29.5629 8.356C30.2349 9.00933 30.5709 9.868 30.5709 10.932ZM22.7869 15.58C23.3655 15.2253 23.9629 14.852 24.5789 14.46C25.1949 14.068 25.7642 13.6667 26.2869 13.256C26.8095 12.8453 27.2295 12.416 27.5469 11.968C27.8829 11.5013 28.0509 11.0253 28.0509 10.54C28.0509 9.84933 27.6775 9.504 26.9309 9.504C26.4642 9.504 25.9695 9.80267 25.4469 10.4C24.9429 10.9787 24.4575 11.7347 23.9909 12.668C23.5242 13.6013 23.1229 14.572 22.7869 15.58ZM35.9206 21.992C35.6406 21.992 35.4353 21.8893 35.3046 21.684C35.174 21.4787 35.1086 21.2173 35.1086 20.9C35.1086 20.6387 35.2766 20.2653 35.6126 19.78C35.9673 19.276 36.4246 18.688 36.9846 18.016C37.5633 17.3253 38.198 16.588 38.8886 15.804C39.5793 15.02 40.2793 14.2267 40.9886 13.424C40.13 11.968 39.4766 10.82 39.0286 9.98C38.5806 9.12133 38.3566 8.44933 38.3566 7.964C38.3566 7.628 38.4686 7.32 38.6926 7.04C38.9166 6.74133 39.1406 6.592 39.3646 6.592C39.626 6.592 39.878 6.75067 40.1206 7.068C40.382 7.36667 40.6993 7.88 41.0726 8.608C41.446 9.31733 41.95 10.2973 42.5846 11.548C43.6113 10.316 44.4606 9.308 45.1326 8.524C45.8233 7.74 46.374 7.13333 46.7846 6.704C47.214 6.27467 47.55 5.976 47.7926 5.808C48.054 5.62133 48.278 5.528 48.4646 5.528C48.6886 5.528 48.8753 5.62133 49.0246 5.808C49.174 5.976 49.2486 6.256 49.2486 6.648C49.2486 7.02133 49.0713 7.47867 48.7166 8.02C48.3806 8.56133 47.9326 9.14933 47.3726 9.784C46.8126 10.4187 46.206 11.072 45.5526 11.744C44.918 12.3973 44.3113 13.032 43.7326 13.648C44.666 15.2533 45.562 16.6533 46.4206 17.848C47.2793 19.024 47.97 19.9947 48.4926 20.76C49.034 21.5253 49.3046 22.0853 49.3046 22.44C49.3046 22.6827 49.2486 22.8693 49.1366 23C49.0246 23.112 48.81 23.168 48.4926 23.168C48.2686 23.168 48.0073 23.0747 47.7086 22.888C47.41 22.7013 47.0273 22.3373 46.5606 21.796C46.1126 21.2547 45.5246 20.4707 44.7966 19.444C44.0873 18.3987 43.21 17.036 42.1646 15.356C41.5113 16.084 40.858 16.84 40.2046 17.624C39.57 18.3893 38.9633 19.108 38.3846 19.78C37.8246 20.4333 37.33 20.9653 36.9006 21.376C36.4713 21.7867 36.1446 21.992 35.9206 21.992ZM50.1398 14.04C49.6358 14.0027 49.4025 13.676 49.4398 13.06C49.4585 12.9107 49.5611 12.7333 49.7478 12.528C49.9345 12.304 50.1491 12.1827 50.3918 12.164C50.9705 12.108 51.6798 12.024 52.5198 11.912C53.3785 11.7813 54.3211 11.632 55.3478 11.464C55.5345 10.5493 55.7585 9.588 56.0198 8.58C56.2811 7.572 56.5705 6.592 56.8878 5.64C57.2051 4.66933 57.5411 3.792 57.8958 3.008C58.2505 2.224 58.6238 1.608 59.0158 1.16C59.2211 0.954666 59.4078 0.814666 59.5758 0.74C59.7438 0.646666 59.8931 0.6 60.0238 0.6C60.2851 0.6 60.4905 0.711999 60.6398 0.935999C60.8078 1.16 60.8918 1.412 60.8918 1.692C60.8918 1.84133 60.8638 1.99067 60.8078 2.14C60.4345 3.18533 60.0331 4.47333 59.6038 6.004C59.1745 7.53467 58.7171 9.20533 58.2318 11.016C59.9491 10.736 61.6665 10.4373 63.3838 10.12C65.1011 9.80267 66.5758 9.51333 67.8078 9.252C68.1625 9.10267 68.4331 9.13067 68.6198 9.336C68.8251 9.54133 68.9278 9.74667 68.9278 9.952C68.9278 10.2133 68.8531 10.4093 68.7038 10.54C68.5731 10.6707 68.4331 10.7827 68.2838 10.876L68.2558 10.904C67.8825 11.0533 67.3225 11.2307 66.5758 11.436C65.8291 11.6227 64.9705 11.828 63.9998 12.052C63.0291 12.2573 61.9931 12.4627 60.8918 12.668C59.8091 12.8733 58.7358 13.06 57.6718 13.228C57.2425 14.8707 56.8038 16.56 56.3558 18.296C55.9265 20.0133 55.4971 21.7027 55.0678 23.364C54.8811 24.036 54.6665 24.456 54.4238 24.624C54.1998 24.8107 53.9571 24.904 53.6958 24.904C53.3971 24.904 53.1358 24.792 52.9118 24.568C52.7065 24.344 52.6785 23.8867 52.8278 23.196L54.8718 13.648C53.7518 13.816 52.7625 13.9373 51.9038 14.012C51.0638 14.0867 50.4758 14.096 50.1398 14.04Z" fill="black"/>
</svg>
